<svg width="41" height="41" viewBox="0 0 41 41" fill="none" xmlns="http://www.w3.org/2000/svg">
<g id="09">
<circle id="Oval" opacity="0.2" cx="20.5" cy="20.5" r="20.5" fill="#3791D8"/>
<g id="price-voucher-discount-offer-ticket-svgrepo-com">
<path id="Path" fill-rule="evenodd" clip-rule="evenodd" d="M30 17.8286V15.7857C30 15.3143 29.6897 15 29.2244 15H24.3378C24.1051 15.4714 23.5622 15.7857 23.0192 15.7857C22.4763 15.7857 21.9333 15.4714 21.7006 15H10.609C10.1436 15 9.83333 15.3143 9.83333 15.7857V17.8286C10.7641 18.3786 11.3846 19.4 11.3846 20.5C11.3846 21.6 10.7641 22.7 9.83333 23.1714V25.2143C9.83333 25.6857 10.1436 26 10.609 26H21.7006C21.9333 25.5286 22.4763 25.2143 23.0192 25.2143C23.5622 25.2143 24.1051 25.5286 24.3378 26H29.2244C29.6897 26 30 25.6857 30 25.2143V23.1714C29.0692 22.6214 28.4487 21.6 28.4487 20.5C28.4487 19.4 29.0692 18.3 30 17.8286Z" stroke="#3791D8" stroke-width="2" stroke-linecap="round" stroke-linejoin="round"/>
<path id="Path_2" d="M23.125 16.8333V19.5833" stroke="#3791D8" stroke-width="2" stroke-linecap="round" stroke-linejoin="round"/>
<path id="Path_3" d="M23.125 24.1667V21.4167" stroke="#3791D8" stroke-width="2" stroke-linecap="round" stroke-linejoin="round"/>
<path id="Path_4" d="M15.3333 23.2501L18.0833 18.6667" stroke="#3791D8" stroke-width="2" stroke-linecap="round" stroke-linejoin="round"/>
<path id="Path_5" d="M14.875 16.8333V19.5833" stroke="#3791D8" stroke-width="2" stroke-linecap="round" stroke-linejoin="round"/>
<path id="Path_6" d="M19.4583 21.4167V24.1667" stroke="#3791D8" stroke-width="2" stroke-linecap="round" stroke-linejoin="round"/>
</g>
</g>
</svg>
