<svg width="37" height="37" viewBox="0 0 37 37" fill="none" xmlns="http://www.w3.org/2000/svg">
<g id="03">
<circle id="Oval Copy" opacity="0.2" cx="18.5" cy="18.5" r="18.5" fill="#6AB04D"/>
<g id="bath-and-shower-svgrepo-com">
<path id="Shape" fill-rule="evenodd" clip-rule="evenodd" d="M11.6401 12.2777L11.6402 12.2724C11.65 11.9779 11.7294 11.674 11.861 11.4114C11.9661 11.2016 12.1109 11.0167 12.3127 10.8825C12.5095 10.7516 12.8086 10.6364 13.2801 10.6364C13.7516 10.6364 14.0508 10.7516 14.2475 10.8825C14.5008 11.051 14.6677 11.3079 14.7707 11.573C14.2819 11.701 13.8757 11.9267 13.5471 12.2194C13.0376 12.6732 12.7736 13.235 12.6348 13.6813C12.477 14.1893 12.618 14.6844 12.9256 15.0303C13.2207 15.3623 13.6529 15.5455 14.1001 15.5455H17.3802C17.8275 15.5455 18.2596 15.3623 18.5548 15.0303C18.8623 14.6844 19.0034 14.1893 18.8455 13.6813C18.7068 13.235 18.4427 12.6732 17.9333 12.2194C17.5511 11.879 17.064 11.6292 16.4639 11.5183C16.4073 11.271 16.3157 10.978 16.1661 10.6796C15.9637 10.2757 15.6473 9.84691 15.1572 9.52094C14.662 9.19155 14.0386 9 13.2801 9C12.5216 9 11.8982 9.19155 11.403 9.52094C10.9129 9.84691 10.5965 10.2757 10.3941 10.6796C10.1933 11.0802 10.097 11.471 10.0496 11.7547C10.0213 11.9242 10.001 12.0969 10 12.2691L10 18.8182C10.0001 18.8923 10.0017 18.9655 10.0071 19.0977C10.014 19.2667 10.0277 19.5054 10.0549 19.7907C10.109 20.3573 10.2182 21.1264 10.4416 21.9066C10.6622 22.6772 11.0114 23.5198 11.5812 24.183C12.1719 24.8706 13.0029 25.3636 14.1001 25.3636V26.1818C14.1001 26.6337 14.4673 27 14.9202 27C15.373 27 15.7402 26.6337 15.7402 26.1818V25.3636H22.3004V26.1818C22.3004 26.6337 22.6675 27 23.1204 27C23.5733 27 23.9404 26.6337 23.9404 26.1818V25.3636C25.6526 25.3636 26.647 24.1904 27.1878 23.0262C27.7266 21.8665 27.9203 20.5259 27.9935 19.7053C28.0799 18.7351 27.2921 18 26.4005 18H11.6401V12.2777ZM11.6877 19.6364C11.7361 20.1434 11.832 20.8057 12.0185 21.4571C12.2078 22.1182 12.4737 22.7075 12.8264 23.1181C13.1583 23.5044 13.5573 23.7273 14.1001 23.7273H23.9404C24.73 23.7273 25.2832 23.2348 25.6999 22.338C26.1048 21.4663 26.2805 20.394 26.3529 19.6364H11.6877ZM16.8411 13.4401C16.9877 13.5706 17.0982 13.7337 17.1802 13.9091H14.3001C14.3822 13.7337 14.4927 13.5706 14.6393 13.4401C14.8395 13.2617 15.1651 13.0909 15.7402 13.0909C16.3152 13.0909 16.6409 13.2617 16.8411 13.4401Z" fill="#6AB04D"/>
</g>
</g>
</svg>
