<svg width="37" height="37" viewBox="0 0 37 37" fill="none" xmlns="http://www.w3.org/2000/svg">
<g id="02">
<circle id="Oval Copy" opacity="0.2" cx="18.5" cy="18.5" r="18.5" fill="#88417E"/>
<g id="bedroom-svgrepo-com">
<path id="primary" d="M11.8889 18H10.9289C10.9289 18.5302 11.3587 18.96 11.8889 18.96V18ZM25.1111 18V18.96C25.6413 18.96 26.0711 18.5302 26.0711 18H25.1111ZM25.0956 24C25.0956 24.5302 25.5254 24.96 26.0556 24.96C26.5857 24.96 27.0156 24.5302 27.0156 24H25.0956ZM27.0156 22C27.0156 21.4698 26.5857 21.04 26.0556 21.04C25.5254 21.04 25.0956 21.4698 25.0956 22H27.0156ZM9.98444 24C9.98444 24.5302 10.4143 24.96 10.9444 24.96C11.4746 24.96 11.9044 24.5302 11.9044 24H9.98444ZM11.9044 22C11.9044 21.4698 11.4746 21.04 10.9444 21.04C10.4143 21.04 9.98444 21.4698 9.98444 22H11.9044ZM27 22V22.96C27.5302 22.96 27.96 22.5302 27.96 22H27ZM10 22H9.04C9.04 22.5302 9.46981 22.96 10 22.96V22ZM26.0711 13C26.0711 11.97 25.2694 11.04 24.1667 11.04V12.96C24.1581 12.96 24.1489 12.9579 24.1419 12.9547C24.1357 12.952 24.1346 12.95 24.1366 12.9521C24.1407 12.9564 24.1511 12.9712 24.1511 13H26.0711ZM24.1667 11.04H12.8333V12.96H24.1667V11.04ZM12.8333 11.04C11.7306 11.04 10.9289 11.97 10.9289 13H12.8489C12.8489 12.9712 12.8593 12.9564 12.8634 12.9521C12.8654 12.95 12.8643 12.952 12.8581 12.9547C12.8511 12.9579 12.8419 12.96 12.8333 12.96V11.04ZM10.9289 13V18H12.8489V13H10.9289ZM11.8889 18.96H25.1111V17.04H11.8889V18.96ZM26.0711 18V13H24.1511V18H26.0711ZM27.0156 24V22H25.0956V24H27.0156ZM11.9044 24V22H9.98444V24H11.9044ZM27 21.04H10V22.96H27V21.04ZM10.96 22V19H9.04V22H10.96ZM10.96 19C10.96 18.9712 10.9704 18.9564 10.9746 18.9521C10.9765 18.95 10.9754 18.952 10.9692 18.9547C10.9622 18.9579 10.953 18.96 10.9444 18.96V17.04C9.84169 17.04 9.04 17.97 9.04 19H10.96ZM10.9444 18.96H26.0556V17.04H10.9444V18.96ZM26.0556 18.96C26.047 18.96 26.0378 18.9579 26.0308 18.9547C26.0246 18.952 26.0235 18.95 26.0254 18.9521C26.0296 18.9564 26.04 18.9712 26.04 19H27.96C27.96 17.97 27.1583 17.04 26.0556 17.04V18.96ZM26.04 19V22H27.96V19H26.04Z" fill="#88417E"/>
</g>
</g>
</svg>
