<svg width="37" height="37" viewBox="0 0 37 37" fill="none" xmlns="http://www.w3.org/2000/svg">
<g id="04">
<circle id="Oval Copy" opacity="0.2" cx="18.5" cy="18.5" r="18.5" fill="#3996B0"/>
<g id="check-svgrepo-com">
<path id="Shape" fill-rule="evenodd" clip-rule="evenodd" d="M11 18.5C11 14.3645 14.3645 11 18.5 11C22.6355 11 26 14.3645 26 18.5C26 22.6355 22.6355 26 18.5 26C14.3645 26 11 22.6355 11 18.5ZM12.4516 18.5C12.4516 21.8351 15.1649 24.5484 18.5 24.5484C21.8351 24.5484 24.5484 21.8351 24.5484 18.5C24.5484 15.1649 21.8351 12.4516 18.5 12.4516C15.1649 12.4516 12.4516 15.1649 12.4516 18.5Z" fill="#3996B0"/>
<path id="Path" d="M21.132 15.8093L17.5323 19.409L15.6261 17.5029L14.5997 18.5293L17.5323 21.4619L22.1584 16.8357L21.132 15.8093Z" fill="#3996B0"/>
</g>
</g>
</svg>
