<svg width="37" height="37" viewBox="0 0 37 37" fill="none" xmlns="http://www.w3.org/2000/svg">
<g id="07">
<circle id="Oval Copy" opacity="0.2" cx="18.5" cy="18.5" r="18.5" fill="#3FB8A9"/>
<g id="grow-svgrepo-com">
<path id="Shape" fill-rule="evenodd" clip-rule="evenodd" d="M24.5263 18.75V18H26C26 18 25.9985 18.8445 25.9956 18.8903C25.9462 19.8818 25.3847 25.752 19.3684 26.2057V27H17.8947V21.711C13.8406 21.318 12.7368 17.7105 12.7368 15.75V15H14.2105V15.75V15.7508C14.2135 16.0238 15.7181 16.3642 16.2125 16.476C16.7799 16.6042 17.3753 16.7407 17.8947 16.9418V15C17.8947 10.5 15.6761 10.5 14.9474 10.5C13.8871 10.5 13.4737 10.9208 13.4737 12C13.4737 12.3368 13.8797 12.75 14.2105 12.75C14.5414 12.75 14.9474 12.3368 14.9474 12H16.4211C16.4211 13.1565 15.3467 14.25 14.2105 14.25C13.0743 14.25 12 13.1565 12 12C12 10.0935 13.0743 9 14.9474 9C16.4041 9 18.7303 9.612 19.2572 13.3432C19.602 13.2255 19.9697 13.1378 20.3138 13.0598C20.7213 12.9675 21.38 12.8167 21.5789 12.666V12H23.0526V12.75C23.0526 14.19 22.2568 16.8128 19.3684 17.1975V20.604C20.0809 20.2808 20.9585 20.0805 21.7875 19.893L21.7888 19.8927C22.8793 19.646 24.5263 19.2733 24.5263 18.75ZM20.6292 14.5247C20.2258 14.6163 19.574 14.7643 19.3684 14.913H19.3692V15.6727C20.2858 15.486 20.8281 14.9633 21.1405 14.4045C20.9824 14.4446 20.8255 14.4802 20.6728 14.5148L20.6728 14.5148L20.6727 14.5149L20.6336 14.5237L20.6292 14.5247ZM17.8947 20.1975C15.9031 19.9493 14.9813 18.7163 14.5635 17.6003C14.981 17.7334 15.4286 17.8351 15.8606 17.9333L15.8606 17.9333L15.8935 17.9408L15.8939 17.9408L15.8939 17.9408C16.3888 18.0527 17.8947 18.3931 17.8947 18.6667V20.1975ZM19.3684 22.5V24.7148C22.4433 24.4335 23.6871 22.4055 24.1881 20.7885C23.5463 21.0315 22.8087 21.1987 22.1073 21.357L22.1059 21.3573C21.0154 21.6041 19.3684 21.9767 19.3684 22.5Z" fill="#3FB8A9"/>
</g>
</g>
</svg>
