<svg width="100" height="97" viewBox="0 0 100 97" fill="none" xmlns="http://www.w3.org/2000/svg">
<rect width="100" height="96.4487" rx="24" fill="white"/>
<rect x="0.5" y="0.5" width="99" height="95.4487" rx="23.5" stroke="black" stroke-opacity="0.12"/>
<path d="M80.4166 59.9194C79.4918 59.7283 78.5358 59.7554 77.6231 59.9985C76.4657 60.2801 75.2554 59.8202 74.5686 58.8379L71.5227 54.7056C70.8736 53.7397 70.8736 52.4713 71.5227 51.5053C71.7743 51.0721 71.9702 50.6082 72.1058 50.1249C72.3351 49.3408 73.0373 48.7945 73.8463 48.771H77.6144C78.1114 48.772 78.5539 49.0889 78.7196 49.5623C79.2266 51.0475 80.5777 52.0712 82.1309 52.1471C84.2403 52.1817 85.9854 50.497 86.047 48.3665C86.0843 46.4798 84.7538 44.8475 82.9138 44.5227C81.0738 44.1979 79.2743 45.2776 78.6761 47.0653C78.5104 47.5387 78.0679 47.8555 77.5709 47.8566H73.8724C73.0586 47.8307 72.3549 47.2761 72.1319 46.485C71.2334 43.4407 68.1891 41.5876 65.1053 42.2076C62.0214 42.8277 59.9114 45.7172 60.2349 48.8771C60.5585 52.0369 63.2093 54.4288 66.3535 54.3979C66.8616 54.4014 67.3679 54.3364 67.859 54.2045C68.972 53.8933 70.1605 54.297 70.8613 55.2244L73.8724 59.3567C74.5977 60.3201 74.6701 61.6324 74.0551 62.6713C72.6446 64.9531 72.8645 67.8962 74.5981 69.9382C76.3317 71.9803 79.1773 72.6481 81.6243 71.5871C84.0713 70.5261 85.5527 67.9823 85.282 65.3059C85.0114 62.6295 83.0515 60.4409 80.4427 59.9018L80.4166 59.9194Z" fill="url(#paint0_linear_19_768)"/>
<path d="M75.3227 27.6928C74.6927 28.4185 74.2344 29.2845 73.984 30.2229C73.6511 31.4068 72.6479 32.2605 71.4554 32.3748L66.3806 32.96C65.2244 33.0727 64.1183 32.4483 63.5894 31.3843C63.3509 30.9222 63.057 30.4926 62.7145 30.1058C62.1381 29.4956 62.0239 28.5665 62.4345 27.8279L64.2894 24.5235C64.5329 24.0818 65.0191 23.8443 65.5056 23.9293C67.0384 24.2391 68.5996 23.5537 69.4429 22.2006C70.5647 20.3331 70.0048 17.8836 68.1917 16.7264C66.5835 15.7493 64.5243 16.1141 63.3261 17.5883C62.1279 19.0625 62.1431 21.2126 63.3619 22.6688C63.6918 23.0542 63.7413 23.615 63.4844 24.0554L61.6382 27.3867C61.2161 28.1201 60.379 28.485 59.5733 28.2871C56.4975 27.54 53.3744 29.3238 52.3634 32.405C51.3525 35.4862 52.7857 38.853 55.6721 40.1774C58.5584 41.5018 61.9501 40.3489 63.5019 37.5159C63.7577 37.0598 63.9576 36.5729 64.0969 36.0663C64.3808 34.9095 65.3261 34.0512 66.4768 33.9054L71.5604 33.3201C72.7533 33.1711 73.9153 33.7796 74.5002 34.8598C75.1684 36.1525 76.2594 37.1603 77.5801 37.7049C80.466 38.9341 83.7885 37.7317 85.2914 34.9142C86.7944 32.0968 85.9964 28.5669 83.4392 26.7214C80.8821 24.8759 77.3851 25.3061 75.3227 27.7199V27.6928Z" fill="url(#paint1_linear_19_768)"/>
<path d="M44.5702 16.1772C44.8486 17.093 45.3271 17.9273 45.9671 18.6128C46.763 19.4982 46.9705 20.8035 46.492 21.9139L44.5109 26.696C44.041 27.7749 42.9945 28.4429 41.8695 28.3822C41.3771 28.3663 40.8849 28.4173 40.4049 28.5339C39.6275 28.7318 38.819 28.3692 38.4153 27.6417L36.6544 24.3674C36.4121 23.9251 36.4631 23.3696 36.7814 22.9845C37.7743 21.7825 37.969 20.063 37.2724 18.6485C36.8041 17.7223 36.0041 17.0315 35.0502 16.73C34.0962 16.4284 33.0675 16.5409 32.1928 17.0426C30.5875 17.9672 29.8697 19.9934 30.5071 21.8004C31.1445 23.6074 32.944 24.6474 34.7326 24.2425C35.209 24.1501 35.6885 24.3866 35.9263 24.8313L37.7211 28.1056C38.0931 28.8438 37.9662 29.7513 37.4079 30.345C35.2446 32.8273 35.3626 36.677 37.6734 39.007C39.9842 41.3369 43.639 41.2912 45.8967 38.9041C48.1544 36.517 48.1857 32.6654 45.9671 30.2379C45.1619 29.4133 44.9168 28.1538 45.3491 27.0618L47.3132 22.3154C47.7633 21.1882 48.8197 20.4637 49.98 20.4864C52.569 20.5853 54.9189 18.9005 55.7822 16.3264C56.6455 13.7523 55.8221 10.8856 53.7492 9.24811C51.6763 7.61058 48.8343 7.5818 46.7318 9.17705C44.6294 10.7723 43.754 13.6218 44.5702 16.2129V16.1772Z" fill="url(#paint2_linear_19_768)"/>
<path d="M19.6035 36.5764C20.529 36.7634 21.4846 36.7363 22.3982 36.497C23.5603 36.214 24.7763 36.6708 25.4723 37.6516L28.5028 41.8028C29.1756 42.7566 29.2033 44.0282 28.5727 45.011C28.2958 45.4435 28.0784 45.9119 27.9264 46.4035C27.6995 47.193 26.994 47.7448 26.1797 47.7696H22.4593C21.9566 47.7727 21.509 47.449 21.3502 46.9676C20.8405 45.4807 19.4841 44.4575 17.9267 44.3852C15.7978 44.3209 14.0195 46.009 13.953 48.1574C13.9156 50.0488 15.2508 51.685 17.0974 52.0106C18.9439 52.3362 20.7498 51.2539 21.3502 49.4618C21.5142 48.9856 21.9597 48.667 22.4593 48.6686H26.1797C26.9954 48.6973 27.7002 49.2522 27.9264 50.0435C28.7595 52.7133 31.2692 54.4826 34.0398 54.3534C37.1706 54.1711 39.6569 51.6276 39.7951 48.4659C39.8444 46.8085 39.2306 45.2007 38.092 44.0052C36.9534 42.8097 35.3858 42.1271 33.7428 42.1113C33.2303 42.1127 32.72 42.1779 32.2232 42.3052C31.0977 42.6121 29.9014 42.184 29.219 41.2299L26.1797 37.114C25.4584 36.1483 25.3894 34.8376 26.0051 33.8001C27.4207 31.5127 27.2 28.5624 25.4602 26.5154C23.7204 24.4683 20.8647 23.799 18.4089 24.8625C15.9532 25.9261 14.4666 28.4761 14.7382 31.159C15.0098 33.842 16.9767 36.0359 19.5948 36.5764H19.6035Z" fill="url(#paint3_linear_19_768)"/>
<path d="M24.6555 68.7576C25.2886 68.0317 25.7497 67.1643 26.0027 66.2237C26.341 65.0379 27.3459 64.1843 28.5396 64.0685L33.6134 63.4823C34.7724 63.3656 35.8828 63.9915 36.4128 65.0604C36.6491 65.5219 36.9433 65.9493 37.2876 66.3319C37.8544 66.9512 37.9676 67.8774 37.5675 68.6223L35.713 71.8957C35.4635 72.3453 34.9639 72.581 34.4707 72.4818C32.9366 72.1759 31.3766 72.8656 30.5341 74.2222C29.4126 76.0925 29.9724 78.5458 31.7851 79.7048C33.393 80.7031 35.4668 80.3437 36.6697 78.8585C37.8726 77.3733 37.8452 75.2057 36.6052 73.7533C36.3056 73.3633 36.2641 72.8254 36.5003 72.3916L38.3636 69.0822C38.7837 68.3454 39.6224 67.9791 40.4281 68.1805C43.5033 68.9286 46.6259 67.1421 47.6367 64.0562C48.6474 60.9703 47.2145 57.5984 44.3287 56.2719C41.4428 54.9455 38.0518 56.1002 36.5003 58.9375C36.2408 59.3955 36.0408 59.8867 35.9054 60.3984C35.6194 61.5555 34.6754 62.4141 33.5259 62.5626L28.4434 63.1487C27.2502 63.3005 26.0871 62.6904 25.504 61.6067C24.8336 60.314 23.7436 59.3053 22.4247 58.7572C19.5403 57.5226 16.2167 58.7235 14.7112 61.5442C13.2058 64.3648 14.0009 67.9015 16.5565 69.752C19.1121 71.6026 22.6094 71.1741 24.673 68.7576H24.6555Z" fill="url(#paint4_linear_19_768)"/>
<path d="M55.4108 80.3031C55.12 79.3898 54.634 78.5584 53.9899 77.8723C53.179 77.0022 52.9576 75.7004 53.4318 74.5898L55.4446 69.8879C55.9129 68.8182 56.954 68.1545 58.0748 68.2112C58.5695 68.227 59.0641 68.1764 59.5464 68.0604C60.323 67.8635 61.1307 68.2241 61.5339 68.9475L63.3269 72.2034C63.57 72.6446 63.5226 73.1985 63.2085 73.5873C62.2288 74.7791 62.0411 76.477 62.7348 77.8723C63.2026 78.7933 64.0019 79.4802 64.9548 79.78C65.9077 80.0799 66.9354 79.968 67.8093 79.4692C69.4128 78.5498 70.1299 76.535 69.4932 74.7382C68.8564 72.9413 67.0588 71.9072 65.2721 72.3098C64.7818 72.3938 64.2971 72.1306 64.0796 71.6622L62.2866 68.4064C61.8942 67.6746 62.0041 66.7598 62.5572 66.153C64.7602 63.6572 64.6393 59.7669 62.2861 57.4269C59.9328 55.0869 56.223 55.1681 53.9648 57.6089C51.7066 60.0498 51.7404 63.942 54.0407 66.3393C54.8465 67.1588 55.0885 68.414 54.6496 69.4976L52.6706 74.235C52.203 75.3382 51.1487 76.0381 49.9981 76.0093C48.6229 75.9619 47.2756 76.4235 46.1923 77.3134C43.7995 79.2419 43.1724 82.7496 44.7364 85.4565C46.3004 88.1634 49.555 89.2032 52.292 87.8705C55.0289 86.5378 56.3724 83.259 55.4108 80.2587V80.3031Z" fill="url(#paint5_linear_19_768)"/>
<path d="M75.3227 27.6928C74.6927 28.4185 74.2344 29.2845 73.984 30.2229C73.6511 31.4068 72.6479 32.2605 71.4554 32.3748L66.3806 32.96C65.2244 33.0727 64.1183 32.4483 63.5894 31.3843C63.3509 30.9222 63.057 30.4926 62.7145 30.1058C62.1381 29.4956 62.0239 28.5665 62.4345 27.8279L64.2894 24.5235C64.5329 24.0818 65.0191 23.8443 65.5056 23.9293C67.0384 24.2391 68.5996 23.5537 69.4429 22.2006C70.5647 20.3331 70.0048 17.8836 68.1917 16.7264C66.5835 15.7493 64.5243 16.1141 63.3261 17.5883C62.1279 19.0625 62.1431 21.2126 63.3619 22.6688C63.6918 23.0542 63.7413 23.615 63.4844 24.0554L61.6382 27.3867C61.2161 28.1201 60.379 28.485 59.5733 28.2871C56.4975 27.54 53.3744 29.3238 52.3634 32.405C51.3525 35.4862 52.7857 38.853 55.6721 40.1774C58.5584 41.5018 61.9501 40.3489 63.5019 37.5159C63.7577 37.0598 63.9576 36.5729 64.0969 36.0663C64.3808 34.9095 65.3261 34.0512 66.4768 33.9054L71.5604 33.3201C72.7533 33.1711 73.9153 33.7796 74.5002 34.8598C75.1684 36.1525 76.2594 37.1603 77.5801 37.7049C80.466 38.9341 83.7885 37.7317 85.2914 34.9142C86.7944 32.0968 85.9964 28.5669 83.4392 26.7214C80.8821 24.8759 77.3851 25.3061 75.3227 27.7199V27.6928Z" fill="url(#paint6_linear_19_768)"/>
<defs>
<linearGradient id="paint0_linear_19_768" x1="22.4006" y1="27.0416" x2="65.5552" y2="83.6762" gradientUnits="userSpaceOnUse">
<stop stop-color="#B76CA0"/>
<stop offset="0.49" stop-color="#662265"/>
<stop offset="0.49" stop-color="#662265"/>
<stop offset="0.63" stop-color="#622161"/>
<stop offset="0.77" stop-color="#561D55"/>
<stop offset="0.91" stop-color="#421842"/>
<stop offset="1" stop-color="#311331"/>
</linearGradient>
<linearGradient id="paint1_linear_19_768" x1="8.52503" y1="16.866" x2="28.3664" y2="85.475" gradientUnits="userSpaceOnUse">
<stop stop-color="#B76CA0"/>
<stop offset="0.49" stop-color="#662265"/>
<stop offset="0.49" stop-color="#662265"/>
<stop offset="0.63" stop-color="#622161"/>
<stop offset="0.77" stop-color="#561D55"/>
<stop offset="0.91" stop-color="#421842"/>
<stop offset="1" stop-color="#311331"/>
</linearGradient>
<linearGradient id="paint2_linear_19_768" x1="14.3388" y1="34.1425" x2="60.5875" y2="87.3401" gradientUnits="userSpaceOnUse">
<stop stop-color="#B76CA0"/>
<stop offset="0.49" stop-color="#662265"/>
<stop offset="0.49" stop-color="#662265"/>
<stop offset="0.63" stop-color="#622161"/>
<stop offset="0.77" stop-color="#561D55"/>
<stop offset="0.91" stop-color="#421842"/>
<stop offset="1" stop-color="#311331"/>
</linearGradient>
<linearGradient id="paint3_linear_19_768" x1="-12.3576" y1="46.9247" x2="30.9451" y2="103.698" gradientUnits="userSpaceOnUse">
<stop stop-color="#B76CA0"/>
<stop offset="0.49" stop-color="#662265"/>
<stop offset="0.49" stop-color="#662265"/>
<stop offset="0.63" stop-color="#622161"/>
<stop offset="0.77" stop-color="#561D55"/>
<stop offset="0.91" stop-color="#421842"/>
<stop offset="1" stop-color="#311331"/>
</linearGradient>
<linearGradient id="paint4_linear_19_768" x1="-33.5605" y1="40.0134" x2="-13.7219" y2="108.724" gradientUnits="userSpaceOnUse">
<stop stop-color="#B76CA0"/>
<stop offset="0.49" stop-color="#662265"/>
<stop offset="0.49" stop-color="#662265"/>
<stop offset="0.63" stop-color="#622161"/>
<stop offset="0.77" stop-color="#561D55"/>
<stop offset="0.91" stop-color="#421842"/>
<stop offset="1" stop-color="#311331"/>
</linearGradient>
<linearGradient id="paint5_linear_19_768" x1="0.655766" y1="41.6671" x2="46.8098" y2="94.5112" gradientUnits="userSpaceOnUse">
<stop stop-color="#B76CA0"/>
<stop offset="0.49" stop-color="#662265"/>
<stop offset="0.49" stop-color="#662265"/>
<stop offset="0.63" stop-color="#622161"/>
<stop offset="0.77" stop-color="#561D55"/>
<stop offset="0.91" stop-color="#421842"/>
<stop offset="1" stop-color="#311331"/>
</linearGradient>
<linearGradient id="paint6_linear_19_768" x1="8.52503" y1="16.866" x2="28.3664" y2="85.475" gradientUnits="userSpaceOnUse">
<stop stop-color="#B76CA0"/>
<stop offset="0.49" stop-color="#662265"/>
<stop offset="0.49" stop-color="#662265"/>
<stop offset="0.63" stop-color="#622161"/>
<stop offset="0.77" stop-color="#561D55"/>
<stop offset="0.91" stop-color="#421842"/>
<stop offset="1" stop-color="#311331"/>
</linearGradient>
</defs>
</svg>
