<svg width="151" height="32" viewBox="0 0 151 32" fill="none" xmlns="http://www.w3.org/2000/svg">
<path d="M46.7252 12.946C47.9144 12.9292 49.0787 13.3041 50.0554 14.0183C50.1897 14.1117 50.2792 14.2614 50.301 14.4292C50.3229 14.597 50.2749 14.7666 50.1694 14.8945L49.9109 15.3346C49.7094 15.6827 49.4395 15.7107 49.0936 15.4827C48.4169 15.0083 47.6255 14.7473 46.8126 14.7305C44.5849 14.7305 43.3912 16.4349 43.3912 18.4154C43.3912 20.3959 44.6267 22.2564 46.8126 22.2564C47.7203 22.2312 48.5966 21.9018 49.3141 21.3161C49.4278 21.1895 49.592 21.1273 49.7563 21.1486C49.9206 21.17 50.0655 21.2722 50.1466 21.4242L50.4318 21.8243C50.5403 21.9479 50.5933 22.1147 50.5773 22.2822C50.5613 22.4497 50.4779 22.602 50.3481 22.7005C49.3204 23.5654 48.0411 24.0317 46.7252 24.0208C43.5205 24.0208 41.4524 21.5882 41.4524 18.4194C41.42 16.9443 41.9676 15.5205 42.9657 14.4843C43.9639 13.4482 45.3242 12.8916 46.7252 12.946Z" fill="#1D1D1B"/>
<path fill-rule="evenodd" clip-rule="evenodd" d="M65.4345 14.4884C64.3989 13.4536 62.9888 12.8957 61.5349 12.9454C60.0811 12.8957 58.671 13.4536 57.6354 14.4884C56.5997 15.5232 56.0295 16.9439 56.0586 18.4172C56.0586 21.5593 58.3266 24.021 61.5349 24.021C64.7433 24.021 67.0113 21.5793 67.0113 18.4172C67.0404 16.9439 66.4702 15.5232 65.4345 14.4884ZM65.0239 18.4172C65.0239 20.5947 63.5619 22.2598 61.535 22.2598V22.2438C59.504 22.2438 58.0421 20.5786 58.0421 18.4172C58.0421 16.3317 59.508 14.7307 61.535 14.7307C63.5619 14.7307 65.0239 16.3317 65.0239 18.4172Z" fill="#1D1D1B"/>
<path d="M72.3073 13.5684C72.3044 13.3941 72.3725 13.2268 72.4946 13.1079C72.6168 12.989 72.7815 12.9299 72.9478 12.9451H73.8889C74.2157 12.9225 74.5115 13.1463 74.5926 13.4776L76.4866 18.4311C76.7278 19.0874 77.0243 20.0533 77.0243 20.0533H77.0559C77.0559 20.0533 77.3406 19.0874 77.5779 18.4311L79.4757 13.4776C79.5591 13.1424 79.8607 12.918 80.1914 12.9451H81.1166C81.2836 12.9286 81.4494 12.9872 81.5724 13.1062C81.6955 13.2252 81.7641 13.3933 81.7611 13.5684L82.5202 23.3432C82.5565 23.5217 82.5074 23.7073 82.3887 23.8411C82.2699 23.9749 82.0964 24.0402 81.9232 24.0161H81.251C81.0841 24.0341 80.9179 23.9758 80.7951 23.8564C80.6724 23.7369 80.6051 23.5679 80.6105 23.3928L80.2151 17.8243C80.1677 17.0936 80.2151 16.1112 80.2151 16.1112H80.1835C80.1835 16.1112 79.8553 17.1886 79.6181 17.8243L78.08 21.5971C77.9926 21.9218 77.6984 22.1375 77.3762 22.1131H76.7515C76.4248 22.1407 76.1244 21.9253 76.0319 21.5971L74.5096 17.8243C74.2724 17.1886 73.9284 16.0947 73.9284 16.0947H73.8968C73.8968 16.0947 73.9284 17.0936 73.8968 17.8243L73.5014 23.3928C73.507 23.5687 73.4391 23.7385 73.3155 23.8581C73.1918 23.9777 73.0245 24.0353 72.8569 24.0161H72.1847C72.012 24.0382 71.8396 23.9724 71.7213 23.8391C71.6031 23.7058 71.5534 23.5213 71.5877 23.3432L72.3073 13.5684Z" fill="#1D1D1B"/>
<path d="M88.7518 13.5688C88.7489 13.3946 88.817 13.2272 88.9392 13.1083C89.0614 12.9895 89.2262 12.9303 89.3926 12.9456H90.3339C90.6623 12.9209 90.9605 13.1451 91.0419 13.478L92.9365 18.4313C93.1778 19.0876 93.4745 20.0535 93.4745 20.0535H93.5061C93.5061 20.0535 93.7909 19.0876 94.0282 18.4313L95.9268 13.478C96.0101 13.1429 96.3119 12.9184 96.6427 12.9456H97.5682C97.7356 12.9277 97.9022 12.9858 98.0256 13.1051C98.149 13.2244 98.2172 13.3934 98.213 13.5688L98.9526 23.3433C98.9888 23.5217 98.9398 23.7073 98.821 23.8411C98.7022 23.9749 98.5286 24.0402 98.3554 24.0161H97.6829C97.516 24.0341 97.3497 23.9758 97.2269 23.8564C97.1041 23.7369 97.0367 23.5679 97.0422 23.3928L96.6466 17.8245C96.6031 17.0939 96.6466 16.1115 96.6466 16.1115H96.619C96.619 16.1115 96.2867 17.1888 96.0494 17.8245L94.5108 21.5972C94.4236 21.9203 94.1316 22.1355 93.8107 22.1132H93.1857C92.8595 22.1421 92.5595 21.9258 92.4698 21.5972L90.943 17.8245C90.7057 17.1888 90.3616 16.095 90.3616 16.095H90.33C90.33 16.095 90.3616 17.0939 90.33 17.8245L89.9344 23.3928C89.94 23.5687 89.8722 23.7385 89.7485 23.8581C89.6247 23.9777 89.4574 24.0353 89.2897 24.0161H88.6173C88.4445 24.0382 88.2721 23.9724 88.1538 23.8391C88.0355 23.7058 87.9857 23.5214 88.0201 23.3433L88.7518 13.5688Z" fill="#1D1D1B"/>
<path d="M104.627 22.0698L104.968 21.585C105.219 21.2524 105.482 21.2364 105.869 21.4487C106.509 21.9393 107.292 22.2198 108.106 22.2501C109.13 22.2501 109.751 21.7492 109.751 21.024C109.751 18.9807 104.611 19.4214 104.611 16.0598C104.611 14.1687 106.227 12.9427 108.311 12.9427C109.319 12.932 110.307 13.2107 111.153 13.744C111.304 13.8258 111.413 13.9664 111.451 14.1308C111.49 14.2953 111.454 14.4678 111.354 14.6054L111.075 15.1063C110.844 15.543 110.515 15.4829 110.191 15.3186C109.625 14.9484 108.963 14.7427 108.283 14.7256C107.255 14.7256 106.605 15.2104 106.605 15.9276C106.605 17.9309 111.745 17.4221 111.745 20.8437C111.745 22.5826 110.409 24.021 108.093 24.021C106.884 24.0169 105.706 23.6473 104.722 22.9633C104.566 22.8724 104.463 22.7154 104.445 22.5396C104.426 22.3637 104.494 22.1896 104.627 22.0698Z" fill="#1D1D1B"/>
<path d="M117.227 13.5928C117.205 13.4183 117.26 13.2427 117.375 13.1167C117.49 12.9906 117.653 12.9281 117.817 12.9471H118.464C118.63 12.9243 118.796 12.9849 118.915 13.1113C119.033 13.2377 119.09 13.4155 119.069 13.5928V19.9114C119.069 21.3855 119.959 22.2139 121.325 22.2139C122.691 22.2139 123.608 21.4018 123.608 19.9114V13.5928C123.585 13.4175 123.64 13.2411 123.756 13.1149C123.872 12.9886 124.037 12.9267 124.201 12.9471H124.863C125.024 12.9347 125.182 13.0001 125.292 13.1253C125.403 13.2505 125.455 13.4222 125.434 13.5928V19.9277C125.434 22.3642 123.794 24.021 121.34 24.021C118.886 24.021 117.227 22.3642 117.227 19.9277V13.5928Z" fill="#1D1D1B"/>
<path fill-rule="evenodd" clip-rule="evenodd" d="M131.98 13.1273C131.867 13.2553 131.813 13.4337 131.835 13.6109V23.3606C131.81 23.5385 131.863 23.719 131.977 23.8479C132.091 23.9768 132.253 24.0392 132.415 24.0164H133.066C133.227 24.0392 133.39 23.9768 133.504 23.8479C133.618 23.719 133.67 23.5385 133.645 23.3606V19.888H135.407L137.172 23.5627C137.298 23.8563 137.574 24.0359 137.868 24.0164H138.616C139.083 24.0164 139.267 23.6906 139.027 23.2369L137.374 19.9045C137.28 19.7025 137.171 19.5094 137.049 19.3271V19.2941C138.105 18.7502 138.763 17.5601 138.717 16.2751C138.717 14.778 138.051 13.7181 137.034 13.2521C136.425 13.0056 135.777 12.9044 135.13 12.9551H132.415C132.254 12.9358 132.093 12.9993 131.98 13.1273ZM136.443 17.6681C136.139 18.0081 135.715 18.1834 135.283 18.1476H133.645V14.6873H134.984C135.355 14.6608 135.726 14.7241 136.072 14.8729C136.604 15.1351 136.922 15.744 136.862 16.3824C136.9 16.8579 136.747 17.3281 136.443 17.6681Z" fill="#1D1D1B"/>
<path d="M144.616 13.6033C144.594 13.4257 144.648 13.2469 144.764 13.1186C144.88 12.9903 145.043 12.9266 145.208 12.946H150.144C150.31 12.9261 150.475 12.9889 150.593 13.1167C150.711 13.2446 150.77 13.4236 150.751 13.6033V14.0415C150.769 14.2196 150.71 14.3968 150.592 14.5219C150.473 14.647 150.308 14.7061 150.144 14.6822H146.465V17.5759H149.338C149.501 17.5517 149.666 17.6108 149.785 17.7362C149.903 17.8615 149.96 18.0389 149.941 18.2166V18.6548C149.965 18.8355 149.91 19.018 149.791 19.1479C149.673 19.2778 149.505 19.3401 149.338 19.3162H146.48V22.2843H150.392C150.555 22.2603 150.719 22.319 150.837 22.4433C150.955 22.5677 151.014 22.7438 150.996 22.9209V23.3591C151.017 23.5387 150.96 23.7189 150.842 23.8474C150.724 23.9759 150.558 24.0382 150.392 24.0164H145.208C145.043 24.0392 144.877 23.9767 144.76 23.8475C144.644 23.7183 144.59 23.5374 144.616 23.3591V13.6033Z" fill="#1D1D1B"/>
<path d="M26.6098 20.651C26.239 20.5745 25.8557 20.5853 25.4898 20.6827C25.0257 20.7954 24.5405 20.6113 24.2651 20.218L23.0438 18.5635C22.7835 18.1768 22.7835 17.6689 23.0438 17.2822C23.1447 17.1087 23.2232 16.923 23.2776 16.7295C23.3695 16.4156 23.6511 16.1968 23.9755 16.1874H25.4863C25.6855 16.1878 25.863 16.3147 25.9294 16.5042C26.1327 17.0989 26.6744 17.5087 27.2972 17.5391C28.1429 17.553 28.8426 16.8785 28.8673 16.0255C28.8823 15.2701 28.3488 14.6165 27.6111 14.4865C26.8733 14.3564 26.1518 14.7887 25.912 15.5045C25.8455 15.694 25.6681 15.8209 25.4688 15.8213H23.9859C23.6597 15.8109 23.3775 15.5889 23.2881 15.2722C22.9278 14.0533 21.7072 13.3113 20.4708 13.5596C19.2343 13.8078 18.3883 14.9647 18.518 16.2299C18.6477 17.495 19.7106 18.4527 20.9712 18.4403C21.175 18.4417 21.378 18.4157 21.5749 18.3629C22.0211 18.2383 22.4977 18.3999 22.7787 18.7712L23.9859 20.4257C24.2768 20.8114 24.3058 21.3368 24.0592 21.7528C23.4936 22.6664 23.5818 23.8447 24.2769 24.6623C24.972 25.4799 26.1129 25.7473 27.094 25.3225C28.0752 24.8977 28.6691 23.8792 28.5606 22.8076C28.4521 21.7361 27.6663 20.8598 26.6203 20.6439L26.6098 20.651Z" fill="url(#paint0_linear_30_8156)"/>
<path d="M24.6658 7.57975C24.419 7.86828 24.2394 8.21259 24.1413 8.58569C24.0109 9.05642 23.6179 9.39583 23.1506 9.44127L21.1624 9.67396C20.7094 9.71876 20.2761 9.47051 20.0689 9.04749C19.9755 8.86372 19.8603 8.69294 19.7261 8.53915C19.5003 8.29653 19.4556 7.92714 19.6164 7.63345L20.3431 6.31965C20.4385 6.14402 20.629 6.04956 20.8196 6.08338C21.4202 6.20656 22.0318 5.93403 22.3622 5.39605C22.8017 4.65353 22.5823 3.67961 21.872 3.21951C21.2419 2.83105 20.4351 2.97609 19.9657 3.56223C19.4963 4.14837 19.5022 5.00324 19.9798 5.5822C20.109 5.73546 20.1284 5.95842 20.0278 6.1335L19.3045 7.45804C19.139 7.74961 18.8111 7.89473 18.4954 7.81602C17.2904 7.519 16.0668 8.22822 15.6707 9.45329C15.2747 10.6784 15.8362 12.017 16.967 12.5436C18.0978 13.0701 19.4266 12.6118 20.0346 11.4854C20.1348 11.304 20.2131 11.1105 20.2677 10.909C20.3789 10.4491 20.7493 10.1078 21.2001 10.0498L23.1918 9.81715C23.6591 9.75788 24.1144 9.99983 24.3436 10.4293C24.6054 10.9433 25.0328 11.344 25.5502 11.5605C26.6809 12.0492 27.9826 11.5712 28.5714 10.451C29.1602 9.33076 28.8476 7.92727 27.8457 7.19352C26.8439 6.45976 25.4738 6.6308 24.6658 7.59049V7.57975Z" fill="url(#paint1_linear_30_8156)"/>
<path d="M12.3931 3.1887C12.5047 3.54584 12.6965 3.87116 12.9532 4.13849C13.2723 4.48375 13.3555 4.99273 13.1636 5.42574L12.3693 7.29052C12.1809 7.71124 11.7613 7.97175 11.3102 7.94806C11.1128 7.94187 10.9155 7.96175 10.723 8.00721C10.4113 8.08439 10.0871 7.943 9.9253 7.6593L9.21925 6.38248C9.12211 6.21003 9.14257 5.99339 9.27016 5.84323C9.66828 5.37451 9.74635 4.70399 9.46704 4.1524C9.27928 3.79121 8.95851 3.52186 8.57604 3.40426C8.19357 3.28666 7.7811 3.33055 7.43036 3.52617C6.78674 3.88673 6.49892 4.67684 6.7545 5.38148C7.01008 6.08613 7.73158 6.49168 8.4487 6.33378C8.63971 6.29774 8.83197 6.38998 8.92732 6.5634L9.64695 7.84021C9.7961 8.12809 9.74521 8.48193 9.52135 8.71346C8.65398 9.68143 8.7013 11.1826 9.62783 12.0912C10.5543 12.9998 12.0197 12.982 12.9249 12.0511C13.8302 11.1203 13.8427 9.61831 12.9532 8.67171C12.6303 8.35015 12.532 7.859 12.7054 7.43316L13.4929 5.5823C13.6734 5.14274 14.0969 4.86023 14.5621 4.86909C15.6002 4.90765 16.5424 4.25066 16.8885 3.2469C17.2347 2.24313 16.9045 1.12526 16.0734 0.486703C15.2423 -0.151854 14.1028 -0.163077 13.2598 0.458992C12.4168 1.08106 12.0658 2.19222 12.3931 3.20262V3.1887Z" fill="url(#paint2_linear_30_8156)"/>
<path d="M2.26586 10.8955C2.63695 10.9704 3.02006 10.9596 3.38639 10.8638C3.85233 10.7505 4.3399 10.9333 4.61896 11.326L5.83403 12.9881C6.10377 13.37 6.11487 13.8791 5.86204 14.2726C5.75101 14.4457 5.66384 14.6333 5.60292 14.8301C5.51192 15.1462 5.22905 15.3671 4.90259 15.3771H3.4109C3.20932 15.3783 3.02984 15.2487 2.96619 15.056C2.76183 14.4606 2.21799 14.051 1.59355 14.022C0.739952 13.9963 0.0269749 14.6722 0.000307512 15.5323C-0.0146927 16.2896 0.520654 16.9447 1.26103 17.0751C2.00141 17.2054 2.72548 16.7721 2.96619 16.0546C3.03196 15.8639 3.21059 15.7364 3.4109 15.737H4.90259C5.22962 15.7485 5.51222 15.9706 5.60292 16.2875C5.93694 17.3564 6.94319 18.0648 8.05406 18.0131C9.30935 17.9401 10.3062 16.9217 10.3616 15.6558C10.3814 14.9922 10.1353 14.3485 9.67879 13.8699C9.22227 13.3912 8.59377 13.1179 7.93501 13.1116C7.72952 13.1122 7.52489 13.1383 7.32572 13.1892C6.87443 13.3121 6.39478 13.1407 6.12116 12.7587L4.90259 11.1108C4.61339 10.7241 4.58569 10.1994 4.83256 9.78398C5.40013 8.86814 5.31165 7.68693 4.61408 6.86734C3.9165 6.04775 2.77152 5.77974 1.7869 6.20558C0.802269 6.63141 0.206211 7.65238 0.315111 8.72656C0.42401 9.80074 1.21263 10.6792 2.26236 10.8955H2.26586Z" fill="url(#paint3_linear_30_8156)"/>
<path d="M4.19335 23.9486C4.44138 23.66 4.62205 23.3151 4.72116 22.9411C4.8537 22.4697 5.2474 22.1302 5.71508 22.0842L7.70294 21.8512C8.15702 21.8047 8.59203 22.0536 8.79968 22.4786C8.89228 22.6621 9.00751 22.832 9.14242 22.9841C9.36448 23.2304 9.40883 23.5986 9.25209 23.8948L8.5255 25.1963C8.42778 25.375 8.23202 25.4688 8.03881 25.4293C7.43775 25.3077 6.82658 25.5819 6.49651 26.1213C6.05713 26.8649 6.27643 27.8404 6.98662 28.3012C7.61656 28.6981 8.42905 28.5552 8.90032 27.9647C9.3716 27.3741 9.36088 26.5124 8.87508 25.9348C8.75768 25.7798 8.74143 25.5659 8.83395 25.3935L9.56398 24.0776C9.72858 23.7847 10.0571 23.6391 10.3728 23.7191C11.5776 24.0166 12.801 23.3063 13.197 22.0793C13.593 20.8524 13.0316 19.5117 11.901 18.9843C10.7704 18.4569 9.44181 18.916 8.83395 20.0441C8.73231 20.2262 8.65395 20.4215 8.6009 20.625C8.48884 21.085 8.11898 21.4264 7.66866 21.4854L5.67738 21.7185C5.20993 21.7789 4.75426 21.5363 4.5258 21.1054C4.26313 20.5914 3.8361 20.1904 3.31938 19.9724C2.18931 19.4816 0.887176 19.959 0.297356 21.0805C-0.292465 22.202 0.019036 23.6082 1.0203 24.344C2.02156 25.0797 3.39172 24.9094 4.2002 23.9486H4.19335Z" fill="url(#paint4_linear_30_8156)"/>
<path d="M16.4669 28.3511C16.3503 27.995 16.1555 27.6707 15.8972 27.4032C15.5721 27.0639 15.4833 26.5563 15.6734 26.1232L16.4805 24.2897C16.6682 23.8726 17.0857 23.6137 17.5351 23.6358C17.7334 23.642 17.9317 23.6223 18.1251 23.577C18.4364 23.5003 18.7603 23.6409 18.922 23.923L19.6408 25.1926C19.7383 25.3647 19.7193 25.5807 19.5934 25.7323C19.2006 26.197 19.1253 26.8591 19.4035 27.4032C19.591 27.7624 19.9115 28.0302 20.2936 28.1471C20.6756 28.2641 21.0877 28.2204 21.4381 28.0259C22.081 27.6674 22.3685 26.8817 22.1132 26.1811C21.8579 25.4804 21.1372 25.0771 20.4208 25.2341C20.2242 25.2669 20.0299 25.1642 19.9426 24.9816L19.2238 23.712C19.0664 23.4266 19.1105 23.0699 19.3323 22.8332C20.2155 21.86 20.1671 20.343 19.2236 19.4305C18.28 18.518 16.7926 18.5497 15.8871 19.5015C14.9817 20.4533 14.9953 21.9711 15.9176 22.9059C16.2407 23.2255 16.3377 23.7149 16.1617 24.1375L15.3682 25.9848C15.1808 26.415 14.758 26.688 14.2967 26.6767C13.7453 26.6582 13.2051 26.8383 12.7708 27.1853C11.8114 27.9373 11.56 29.3051 12.187 30.3607C12.8141 31.4162 14.119 31.8217 15.2164 31.302C16.3138 30.7823 16.8525 29.5038 16.4669 28.3338V28.3511Z" fill="url(#paint5_linear_30_8156)"/>
<path d="M24.6658 7.57975C24.419 7.86828 24.2394 8.21259 24.1413 8.58569C24.0109 9.05642 23.6179 9.39583 23.1506 9.44127L21.1624 9.67396C20.7094 9.71876 20.2761 9.47051 20.0689 9.04749C19.9755 8.86372 19.8603 8.69294 19.7261 8.53915C19.5003 8.29653 19.4556 7.92714 19.6164 7.63345L20.3431 6.31965C20.4385 6.14402 20.629 6.04956 20.8196 6.08338C21.4202 6.20656 22.0318 5.93403 22.3622 5.39605C22.8017 4.65353 22.5823 3.67961 21.872 3.21951C21.2419 2.83105 20.4351 2.97609 19.9657 3.56223C19.4963 4.14837 19.5022 5.00324 19.9798 5.5822C20.109 5.73546 20.1284 5.95842 20.0278 6.1335L19.3045 7.45804C19.139 7.74961 18.8111 7.89473 18.4954 7.81602C17.2904 7.519 16.0668 8.22822 15.6707 9.45329C15.2747 10.6784 15.8362 12.017 16.967 12.5436C18.0978 13.0701 19.4266 12.6118 20.0346 11.4854C20.1348 11.304 20.2131 11.1105 20.2677 10.909C20.3789 10.4491 20.7493 10.1078 21.2001 10.0498L23.1918 9.81715C23.6591 9.75788 24.1144 9.99983 24.3436 10.4293C24.6054 10.9433 25.0328 11.344 25.5502 11.5605C26.6809 12.0492 27.9826 11.5712 28.5714 10.451C29.1602 9.33076 28.8476 7.92727 27.8457 7.19352C26.8439 6.45976 25.4738 6.6308 24.6658 7.59049V7.57975Z" fill="url(#paint6_linear_30_8156)"/>
<defs>
<linearGradient id="paint0_linear_30_8156" x1="3.34837" y1="7.48743" x2="20.62" y2="30.1864" gradientUnits="userSpaceOnUse">
<stop stop-color="#B76CA0"/>
<stop offset="0.49" stop-color="#662265"/>
<stop offset="0.49" stop-color="#662265"/>
<stop offset="0.63" stop-color="#622161"/>
<stop offset="0.77" stop-color="#561D55"/>
<stop offset="0.91" stop-color="#421842"/>
<stop offset="1" stop-color="#311331"/>
</linearGradient>
<linearGradient id="paint1_linear_30_8156" x1="-1.50448" y1="3.27501" x2="6.48304" y2="30.491" gradientUnits="userSpaceOnUse">
<stop stop-color="#B76CA0"/>
<stop offset="0.49" stop-color="#662265"/>
<stop offset="0.49" stop-color="#662265"/>
<stop offset="0.63" stop-color="#622161"/>
<stop offset="0.77" stop-color="#561D55"/>
<stop offset="0.91" stop-color="#421842"/>
<stop offset="1" stop-color="#311331"/>
</linearGradient>
<linearGradient id="paint2_linear_30_8156" x1="0.27182" y1="10.1943" x2="18.2302" y2="31.4334" gradientUnits="userSpaceOnUse">
<stop stop-color="#B76CA0"/>
<stop offset="0.49" stop-color="#662265"/>
<stop offset="0.49" stop-color="#662265"/>
<stop offset="0.63" stop-color="#622161"/>
<stop offset="0.77" stop-color="#561D55"/>
<stop offset="0.91" stop-color="#421842"/>
<stop offset="1" stop-color="#311331"/>
</linearGradient>
<linearGradient id="paint3_linear_30_8156" x1="-10.5489" y1="15.0388" x2="6.78197" y2="37.7935" gradientUnits="userSpaceOnUse">
<stop stop-color="#B76CA0"/>
<stop offset="0.49" stop-color="#662265"/>
<stop offset="0.49" stop-color="#662265"/>
<stop offset="0.63" stop-color="#622161"/>
<stop offset="0.77" stop-color="#561D55"/>
<stop offset="0.91" stop-color="#421842"/>
<stop offset="1" stop-color="#311331"/>
</linearGradient>
<linearGradient id="paint4_linear_30_8156" x1="-18.6148" y1="12.52" x2="-10.6283" y2="39.7764" gradientUnits="userSpaceOnUse">
<stop stop-color="#B76CA0"/>
<stop offset="0.49" stop-color="#662265"/>
<stop offset="0.49" stop-color="#662265"/>
<stop offset="0.63" stop-color="#622161"/>
<stop offset="0.77" stop-color="#561D55"/>
<stop offset="0.91" stop-color="#421842"/>
<stop offset="1" stop-color="#311331"/>
</linearGradient>
<linearGradient id="paint5_linear_30_8156" x1="-5.48706" y1="13.2849" x2="12.4368" y2="34.3856" gradientUnits="userSpaceOnUse">
<stop stop-color="#B76CA0"/>
<stop offset="0.49" stop-color="#662265"/>
<stop offset="0.49" stop-color="#662265"/>
<stop offset="0.63" stop-color="#622161"/>
<stop offset="0.77" stop-color="#561D55"/>
<stop offset="0.91" stop-color="#421842"/>
<stop offset="1" stop-color="#311331"/>
</linearGradient>
<linearGradient id="paint6_linear_30_8156" x1="-1.50448" y1="3.27501" x2="6.48304" y2="30.491" gradientUnits="userSpaceOnUse">
<stop stop-color="#B76CA0"/>
<stop offset="0.49" stop-color="#662265"/>
<stop offset="0.49" stop-color="#662265"/>
<stop offset="0.63" stop-color="#622161"/>
<stop offset="0.77" stop-color="#561D55"/>
<stop offset="0.91" stop-color="#421842"/>
<stop offset="1" stop-color="#311331"/>
</linearGradient>
</defs>
</svg>
