<svg width="30" height="34" viewBox="0 0 30 34" fill="none" xmlns="http://www.w3.org/2000/svg">
<path d="M27.6567 21.6043C27.2719 21.5248 26.8741 21.5361 26.4943 21.6372C26.0127 21.7544 25.5091 21.5631 25.2233 21.1543L23.9559 19.4348C23.6857 19.0328 23.6857 18.505 23.9559 18.1031C24.0605 17.9228 24.1421 17.7298 24.1985 17.5287C24.2939 17.2024 24.5861 16.9751 24.9227 16.9653H26.4907C26.6975 16.9657 26.8817 17.0976 26.9506 17.2946C27.1616 17.9126 27.7238 18.3386 28.3701 18.3702C29.2478 18.3846 29.974 17.6835 29.9996 16.797C30.0151 16.0119 29.4615 15.3327 28.6959 15.1975C27.9302 15.0624 27.1814 15.5116 26.9325 16.2555C26.8636 16.4525 26.6794 16.5844 26.4726 16.5848H24.9336C24.595 16.574 24.3022 16.3433 24.2094 16.0141C23.8355 14.7473 22.5687 13.9762 21.2855 14.2342C20.0022 14.4922 19.1242 15.6946 19.2588 17.0094C19.3935 18.3243 20.4965 19.3196 21.8049 19.3067C22.0163 19.3082 22.227 19.2811 22.4314 19.2263C22.8945 19.0968 23.389 19.2648 23.6807 19.6506L24.9336 21.3702C25.2354 21.7711 25.2655 22.3171 25.0096 22.7494C24.4227 23.6989 24.5142 24.9236 25.2356 25.7733C25.957 26.623 27.141 26.9009 28.1593 26.4594C29.1775 26.0179 29.7939 24.9594 29.6813 23.8457C29.5687 22.732 28.7532 21.8213 27.6676 21.597L27.6567 21.6043Z" fill="url(#paint0_linear_302_143)"/>
<path d="M25.5371 8.19453C25.2749 8.4965 25.0842 8.85684 24.98 9.24731C24.8415 9.73997 24.4241 10.0952 23.9278 10.1427L21.8161 10.3863C21.335 10.4332 20.8748 10.1733 20.6547 9.73062C20.5555 9.53829 20.4331 9.35956 20.2906 9.19861C20.0508 8.94469 20.0033 8.55809 20.1741 8.25073L20.946 6.87574C21.0473 6.69193 21.2496 6.59307 21.452 6.62846C22.0899 6.75738 22.7395 6.47216 23.0904 5.90912C23.5572 5.13203 23.3242 4.11275 22.5698 3.63121C21.9006 3.22466 21.0437 3.37646 20.5451 3.9899C20.0465 4.60334 20.0528 5.49802 20.56 6.10395C20.6973 6.26434 20.7179 6.49769 20.611 6.68092L19.8428 8.06715C19.6671 8.3723 19.3188 8.52417 18.9835 8.4418C17.7037 8.13094 16.4041 8.8732 15.9834 10.1553C15.5627 11.4374 16.1591 12.8384 17.3602 13.3895C18.5612 13.9406 19.9726 13.4609 20.6183 12.282C20.7247 12.0923 20.8079 11.8897 20.8659 11.6788C20.984 11.1975 21.3774 10.8403 21.8562 10.7797L23.9715 10.5361C24.4679 10.4741 24.9514 10.7273 25.1948 11.1768C25.4729 11.7147 25.9268 12.1341 26.4764 12.3607C27.6773 12.8722 29.0598 12.3718 29.6852 11.1995C30.3106 10.0271 29.9785 8.55823 28.9145 7.7903C27.8504 7.02237 26.3953 7.20138 25.5371 8.20577V8.19453Z" fill="url(#paint1_linear_302_143)"/>
<path d="M12.7406 3.40264C12.8565 3.78375 13.0556 4.13089 13.3219 4.41615C13.653 4.78458 13.7394 5.32771 13.5403 5.78977L12.7159 7.77966C12.5204 8.22861 12.0849 8.5066 11.6168 8.48132C11.4119 8.47472 11.2071 8.49593 11.0073 8.54444C10.6839 8.6268 10.3474 8.47592 10.1795 8.17319L9.44672 6.81071C9.34591 6.62669 9.36714 6.39551 9.49956 6.23527C9.91273 5.7351 9.99376 5.01959 9.70389 4.431C9.50903 4.04557 9.17612 3.75816 8.77918 3.63266C8.38224 3.50717 7.95418 3.55401 7.59017 3.76276C6.92221 4.1475 6.6235 4.99062 6.88875 5.74255C7.154 6.49447 7.90279 6.92723 8.64703 6.75873C8.84526 6.72027 9.0448 6.8187 9.14375 7.00376L9.8906 8.36624C10.0454 8.67343 9.99258 9.05101 9.76026 9.29807C8.86008 10.331 8.90919 11.9329 9.87075 12.9025C10.8323 13.872 12.3531 13.853 13.2926 12.8597C14.232 11.8663 14.2451 10.2636 13.3219 9.25352C12.9868 8.91039 12.8848 8.38628 13.0647 7.93188L13.882 5.95683C14.0693 5.48778 14.5089 5.18631 14.9917 5.19577C16.069 5.23692 17.0468 4.53585 17.4061 3.46474C17.7653 2.39363 17.4227 1.20076 16.5601 0.519358C15.6975 -0.162042 14.5149 -0.174018 13.6401 0.489787C12.7653 1.15359 12.401 2.3393 12.7406 3.41749V3.40264Z" fill="url(#paint2_linear_302_143)"/>
<path d="M2.35157 11.8911C2.73669 11.9689 3.13429 11.9576 3.51447 11.8581C3.99804 11.7403 4.50405 11.9304 4.79367 12.3385L6.0547 14.0659C6.33464 14.4628 6.34616 14.9919 6.08377 15.4009C5.96854 15.5808 5.87807 15.7758 5.81485 15.9803C5.72041 16.3088 5.42684 16.5384 5.08803 16.5488H3.53991C3.33071 16.55 3.14444 16.4154 3.07838 16.215C2.86629 15.5963 2.30188 15.1706 1.65383 15.1405C0.76794 15.1137 0.0279952 15.8161 0.000319144 16.7101C-0.0152484 17.4972 0.540347 18.178 1.30873 18.3135C2.07711 18.449 2.82857 17.9986 3.07838 17.2529C3.14664 17.0548 3.33203 16.9222 3.53991 16.9228H5.08803C5.42743 16.9348 5.72072 17.1657 5.81485 17.495C6.1615 18.6059 7.20581 19.3421 8.3587 19.2884C9.66147 19.2125 10.6961 18.1541 10.7536 16.8385C10.7741 16.1488 10.5187 15.4798 10.0449 14.9824C9.5711 14.4849 8.91883 14.2008 8.23514 14.1943C8.02188 14.1949 7.80951 14.222 7.60281 14.2749C7.13445 14.4027 6.63666 14.2245 6.35269 13.8275L5.08803 12.1148C4.78788 11.713 4.75914 11.1676 5.01535 10.7358C5.60439 9.78401 5.51256 8.55638 4.7886 7.70457C4.06464 6.85277 2.87636 6.57423 1.85449 7.0168C0.832615 7.45937 0.214011 8.52047 0.32703 9.63687C0.440048 10.7533 1.25849 11.6662 2.34793 11.8911H2.35157Z" fill="url(#paint3_linear_302_143)"/>
<path d="M4.45376 25.2822C4.7172 24.9801 4.90909 24.6192 5.01435 24.2278C5.15512 23.7344 5.57327 23.3792 6.07 23.331L8.1813 23.0871C8.66358 23.0385 9.1256 23.299 9.34615 23.7438C9.4445 23.9358 9.56689 24.1137 9.71017 24.2728C9.94603 24.5306 9.99313 24.9159 9.82665 25.2259L9.05494 26.588C8.95115 26.7751 8.74324 26.8732 8.53803 26.8319C7.89965 26.7046 7.25052 26.9916 6.89996 27.5561C6.43328 28.3344 6.6662 29.3552 7.4205 29.8375C8.08955 30.2529 8.9525 30.1034 9.45304 29.4853C9.95358 28.8673 9.9422 27.9654 9.42624 27.361C9.30154 27.1987 9.28429 26.9749 9.38255 26.7944L10.1579 25.4173C10.3327 25.1107 10.6817 24.9583 11.017 25.0421C12.2966 25.3534 13.596 24.61 14.0166 23.3259C14.4372 22.0418 13.8409 20.6387 12.6401 20.0867C11.4392 19.5348 10.0282 20.0153 9.38255 21.1959C9.27459 21.3865 9.19137 21.5909 9.13502 21.8038C9.01601 22.2853 8.62318 22.6426 8.14489 22.7044L6.02995 22.9483C5.53347 23.0115 5.0495 22.7576 4.80686 22.3066C4.52787 21.7687 4.07432 21.349 3.52551 21.1209C2.32526 20.6072 0.942271 21.1069 0.315822 22.2806C-0.310627 23.4543 0.0202182 24.926 1.08366 25.696C2.1471 26.4661 3.60234 26.2878 4.46104 25.2822H4.45376Z" fill="url(#paint4_linear_302_143)"/>
<path d="M17.2515 30.0865C17.1305 29.7064 16.9283 29.3605 16.6603 29.075C16.3229 28.7129 16.2307 28.1712 16.428 27.7091L17.2656 25.7525C17.4605 25.3074 17.8937 25.0313 18.3601 25.0548C18.5659 25.0614 18.7717 25.0404 18.9724 24.9921C19.2956 24.9102 19.6317 25.0602 19.7995 25.3612L20.5455 26.7161C20.6467 26.8997 20.627 27.1302 20.4963 27.2919C20.0886 27.7878 20.0105 28.4944 20.2992 29.075C20.4938 29.4582 20.8264 29.744 21.2229 29.8688C21.6195 29.9936 22.0471 29.947 22.4107 29.7395C23.078 29.3569 23.3764 28.5185 23.1114 27.7708C22.8465 27.0231 22.0984 26.5928 21.355 26.7603C21.151 26.7953 20.9493 26.6858 20.8587 26.4909L20.1127 25.1361C19.9494 24.8316 19.9951 24.4509 20.2253 24.1984C21.142 23.1599 21.0917 21.5411 20.1125 20.5674C19.1332 19.5937 17.5895 19.6274 16.6498 20.6431C15.7102 21.6588 15.7243 23.2784 16.6814 24.2759C17.0167 24.6169 17.1174 25.1392 16.9348 25.5901L16.1113 27.5614C15.9167 28.0205 15.478 28.3118 14.9992 28.2997C14.427 28.28 13.8664 28.4721 13.4156 28.8424C12.4199 29.6449 12.159 31.1045 12.8098 32.2309C13.4606 33.3572 14.8149 33.7899 15.9537 33.2354C17.0926 32.6808 17.6517 31.3164 17.2515 30.068V30.0865Z" fill="url(#paint5_linear_302_143)"/>
<path d="M25.5371 8.19453C25.2749 8.4965 25.0842 8.85684 24.98 9.24731C24.8415 9.73997 24.4241 10.0952 23.9278 10.1427L21.8161 10.3863C21.335 10.4332 20.8748 10.1733 20.6547 9.73062C20.5555 9.53829 20.4331 9.35956 20.2906 9.19861C20.0508 8.94469 20.0033 8.55809 20.1741 8.25073L20.946 6.87574C21.0473 6.69193 21.2496 6.59307 21.452 6.62846C22.0899 6.75738 22.7395 6.47216 23.0904 5.90912C23.5572 5.13203 23.3242 4.11275 22.5698 3.63121C21.9006 3.22466 21.0437 3.37646 20.5451 3.9899C20.0465 4.60334 20.0528 5.49802 20.56 6.10395C20.6973 6.26434 20.7179 6.49769 20.611 6.68092L19.8428 8.06715C19.6671 8.3723 19.3188 8.52417 18.9835 8.4418C17.7037 8.13094 16.4041 8.8732 15.9834 10.1553C15.5627 11.4374 16.1591 12.8384 17.3602 13.3895C18.5612 13.9406 19.9726 13.4609 20.6183 12.282C20.7247 12.0923 20.8079 11.8897 20.8659 11.6788C20.984 11.1975 21.3774 10.8403 21.8562 10.7797L23.9715 10.5361C24.4679 10.4741 24.9514 10.7273 25.1948 11.1768C25.4729 11.7147 25.9268 12.1341 26.4764 12.3607C27.6773 12.8722 29.0598 12.3718 29.6852 11.1995C30.3106 10.0271 29.9785 8.55823 28.9145 7.7903C27.8504 7.02237 26.3953 7.20138 25.5371 8.20577V8.19453Z" fill="url(#paint6_linear_302_143)"/>
<defs>
<linearGradient id="paint0_linear_302_143" x1="3.51544" y1="7.92337" x2="21.4727" y2="31.4899" gradientUnits="userSpaceOnUse">
<stop stop-color="#B76CA0"/>
<stop offset="0.49" stop-color="#662265"/>
<stop offset="0.49" stop-color="#662265"/>
<stop offset="0.63" stop-color="#622161"/>
<stop offset="0.77" stop-color="#561D55"/>
<stop offset="0.91" stop-color="#421842"/>
<stop offset="1" stop-color="#311331"/>
</linearGradient>
<linearGradient id="paint1_linear_302_143" x1="-2.25841" y1="3.6893" x2="5.99789" y2="32.2385" gradientUnits="userSpaceOnUse">
<stop stop-color="#B76CA0"/>
<stop offset="0.49" stop-color="#662265"/>
<stop offset="0.49" stop-color="#662265"/>
<stop offset="0.63" stop-color="#622161"/>
<stop offset="0.77" stop-color="#561D55"/>
<stop offset="0.91" stop-color="#421842"/>
<stop offset="1" stop-color="#311331"/>
</linearGradient>
<linearGradient id="paint2_linear_302_143" x1="0.160862" y1="10.8783" x2="19.4057" y2="33.0146" gradientUnits="userSpaceOnUse">
<stop stop-color="#B76CA0"/>
<stop offset="0.49" stop-color="#662265"/>
<stop offset="0.49" stop-color="#662265"/>
<stop offset="0.63" stop-color="#622161"/>
<stop offset="0.77" stop-color="#561D55"/>
<stop offset="0.91" stop-color="#421842"/>
<stop offset="1" stop-color="#311331"/>
</linearGradient>
<linearGradient id="paint3_linear_302_143" x1="-10.9479" y1="16.1972" x2="7.07095" y2="39.8215" gradientUnits="userSpaceOnUse">
<stop stop-color="#B76CA0"/>
<stop offset="0.49" stop-color="#662265"/>
<stop offset="0.49" stop-color="#662265"/>
<stop offset="0.63" stop-color="#622161"/>
<stop offset="0.77" stop-color="#561D55"/>
<stop offset="0.91" stop-color="#421842"/>
<stop offset="1" stop-color="#311331"/>
</linearGradient>
<linearGradient id="paint4_linear_302_143" x1="-19.7708" y1="13.3214" x2="-11.5156" y2="41.9128" gradientUnits="userSpaceOnUse">
<stop stop-color="#B76CA0"/>
<stop offset="0.49" stop-color="#662265"/>
<stop offset="0.49" stop-color="#662265"/>
<stop offset="0.63" stop-color="#622161"/>
<stop offset="0.77" stop-color="#561D55"/>
<stop offset="0.91" stop-color="#421842"/>
<stop offset="1" stop-color="#311331"/>
</linearGradient>
<linearGradient id="paint5_linear_302_143" x1="-5.53282" y1="14.0094" x2="13.6726" y2="35.9987" gradientUnits="userSpaceOnUse">
<stop stop-color="#B76CA0"/>
<stop offset="0.49" stop-color="#662265"/>
<stop offset="0.49" stop-color="#662265"/>
<stop offset="0.63" stop-color="#622161"/>
<stop offset="0.77" stop-color="#561D55"/>
<stop offset="0.91" stop-color="#421842"/>
<stop offset="1" stop-color="#311331"/>
</linearGradient>
<linearGradient id="paint6_linear_302_143" x1="-2.25841" y1="3.6893" x2="5.99789" y2="32.2385" gradientUnits="userSpaceOnUse">
<stop stop-color="#B76CA0"/>
<stop offset="0.49" stop-color="#662265"/>
<stop offset="0.49" stop-color="#662265"/>
<stop offset="0.63" stop-color="#622161"/>
<stop offset="0.77" stop-color="#561D55"/>
<stop offset="0.91" stop-color="#421842"/>
<stop offset="1" stop-color="#311331"/>
</linearGradient>
</defs>
</svg>
