<svg width="41" height="41" viewBox="0 0 41 41" fill="none" xmlns="http://www.w3.org/2000/svg">
<g id="08">
<g id="Internet">
<circle id="Oval" opacity="0.2" cx="20.5" cy="20.5" r="20.5" fill="#2EBC8F"/>
<g id="price-voucher-discount-offer-svgrepo-com">
<path id="Path" fill-rule="evenodd" clip-rule="evenodd" d="M30 17.8286V15.7857C30 15.3143 29.6923 15 29.2308 15H24.3846C24.1538 15.4714 23.6154 15.7857 23.0769 15.7857C22.5385 15.7857 22 15.4714 21.7692 15H10.7692C10.3077 15 10 15.3143 10 15.7857V17.8286C10.9231 18.3786 11.5385 19.4 11.5385 20.5C11.5385 21.6 10.9231 22.7 10 23.1714V25.2143C10 25.6857 10.3077 26 10.7692 26H21.7692C22 25.5286 22.5385 25.2143 23.0769 25.2143C23.6154 25.2143 24.1538 25.5286 24.3846 26H29.2308C29.6923 26 30 25.6857 30 25.2143V23.1714C29.0769 22.6214 28.4615 21.6 28.4615 20.5C28.4615 19.4 29.0769 18.3 30 17.8286Z" stroke="#2EBC8F" stroke-width="1.2" stroke-linecap="round" stroke-linejoin="round"/>
<path id="Path_2" d="M23.5 18V19" stroke="#2EBC8F" stroke-width="1.2" stroke-linecap="round" stroke-linejoin="round"/>
<path id="Path_3" d="M23.5 23V22" stroke="#2EBC8F" stroke-width="1.2" stroke-linecap="round" stroke-linejoin="round"/>
<path id="Path_4" d="M16.5 17V18" stroke="#2EBC8F" stroke-width="1.2" stroke-linecap="round" stroke-linejoin="round"/>
<path id="Path_5" d="M16.5 23V24" stroke="#2EBC8F" stroke-width="1.2" stroke-linecap="round" stroke-linejoin="round"/>
<path id="Path_6" d="M17.25 18H16.125C15.525 18 15 18.5833 15 19.25V19.25C15 19.9167 15.525 20.5 16.125 20.5H16.875C17.475 20.5 18 21.0833 18 21.75V21.75C18 22.4167 17.475 23 16.875 23H15.75" stroke="#2EBC8F" stroke-width="1.2" stroke-linecap="round" stroke-linejoin="round"/>
</g>
</g>
</g>
</svg>
