<svg width="37" height="37" viewBox="0 0 37 37" fill="none" xmlns="http://www.w3.org/2000/svg">
<g id="Group 13">
<g id="Messages">
<circle id="Oval Copy" opacity="0.2" cx="18.5" cy="18.5" r="18.5" fill="#525B97"/>
</g>
<g id="01">
<g id="home-9-svgrepo-com">
<path id="Path" fill-rule="evenodd" clip-rule="evenodd" d="M16 19C16 17.8955 16.8954 17.0001 18 17.0001C19.1046 17.0001 20 17.8955 20 19C20 20.1045 19.1046 20.9999 18 20.9999C17.4696 20.9999 16.9609 20.7892 16.5858 20.4141C16.2107 20.039 16 19.5304 16 19Z" stroke="#696FAB" stroke-width="1.536" stroke-linecap="round" stroke-linejoin="round"/>
<path id="Path_2" fill-rule="evenodd" clip-rule="evenodd" d="M13.127 13.0733L15.859 11.5534C17.1913 10.8155 18.8097 10.8155 20.142 11.5534L22.874 13.0733C24.1778 13.786 24.9919 15.1503 25 16.6361V20.8178C24.9649 23.162 23.0363 25.034 20.692 24.9995H15.308C12.9637 25.034 11.0351 23.162 11 20.8178V16.6361C11.0083 15.1501 11.8228 13.7857 13.127 13.0733Z" stroke="#696FAB" stroke-width="1.536" stroke-linecap="round" stroke-linejoin="round"/>
</g>
</g>
</g>
</svg>
