<svg width="20" height="21" viewBox="0 0 20 21" fill="none" xmlns="http://www.w3.org/2000/svg">
<mask id="mask0_30_9135" style="mask-type:alpha" maskUnits="userSpaceOnUse" x="0" y="0" width="20" height="21">
<rect y="0.527466" width="20" height="20" fill="#D9D9D9"/>
</mask>
<g mask="url(#mask0_30_9135)">
<path d="M10.7456 1.52747C10.9569 1.52747 11.1354 1.59934 11.2812 1.74309C11.4271 1.88684 11.5 2.06497 11.5 2.27747V9.77747C11.5 9.98997 11.4285 10.1681 11.2856 10.3118C11.1427 10.4556 10.9656 10.5275 10.7544 10.5275C10.5431 10.5275 10.3646 10.4556 10.2188 10.3118C10.0729 10.1681 10 9.98997 10 9.77747V2.27747C10 2.06497 10.0715 1.88684 10.2144 1.74309C10.3573 1.59934 10.5344 1.52747 10.7456 1.52747ZM7.7456 2.52747C7.95687 2.52747 8.13542 2.59934 8.28125 2.74309C8.42708 2.88684 8.5 3.06497 8.5 3.27747V9.77747C8.5 9.98997 8.42855 10.1681 8.28565 10.3118C8.14273 10.4556 7.96565 10.5275 7.7544 10.5275C7.54313 10.5275 7.36458 10.4556 7.21875 10.3118C7.07292 10.1681 7 9.98997 7 9.77747V3.27747C7 3.06497 7.07145 2.88684 7.21435 2.74309C7.35727 2.59934 7.53435 2.52747 7.7456 2.52747ZM10.5045 19.5275C8.69594 19.5275 7.15972 18.8966 5.89583 17.6348C4.63194 16.3731 4 14.8373 4 13.0275V5.27747C4 5.06497 4.07145 4.88684 4.21435 4.74309C4.35727 4.59934 4.53435 4.52747 4.7456 4.52747C4.95687 4.52747 5.13542 4.59934 5.28125 4.74309C5.42708 4.88684 5.5 5.06497 5.5 5.27747V13.0275C5.5 14.4164 5.98611 15.5969 6.95833 16.5691C7.93056 17.5414 9.11111 18.0275 10.5 18.0275C11.8889 18.0275 13.0694 17.5414 14.0417 16.5691C15.0139 15.5969 15.5 14.4164 15.5 13.0275V10.0275C15.2222 10.0275 14.9861 10.1233 14.7917 10.315C14.5972 10.5066 14.5 10.7441 14.5 11.0275V13.5275C14.5 13.74 14.4281 13.9181 14.2844 14.0618C14.1406 14.2056 13.9625 14.2775 13.75 14.2775H11.75C11.2688 14.2775 10.8568 14.4488 10.5141 14.7915C10.1714 15.1342 10 15.5462 10 16.0275V16.5275C10 16.74 9.92855 16.9181 9.78565 17.0618C9.64273 17.2056 9.46565 17.2775 9.2544 17.2775C9.04313 17.2775 8.86458 17.2056 8.71875 17.0618C8.57292 16.9181 8.5 16.74 8.5 16.5275V16.0275C8.5 15.1247 8.81597 14.3573 9.44792 13.7254C10.0799 13.0934 10.8472 12.7775 11.75 12.7775H13V4.27747C13 4.06497 13.0715 3.88684 13.2144 3.74309C13.3573 3.59934 13.5344 3.52747 13.7456 3.52747C13.9569 3.52747 14.1354 3.59934 14.2812 3.74309C14.4271 3.88684 14.5 4.06497 14.5 4.27747V8.7358C14.6528 8.66635 14.816 8.61427 14.9896 8.57955C15.1632 8.54483 15.3333 8.52747 15.5 8.52747H16.25C16.4625 8.52747 16.6406 8.59934 16.7844 8.74309C16.9281 8.88684 17 9.06497 17 9.27747V13.0275C17 14.8373 16.3696 16.3731 15.1087 17.6348C13.8478 18.8966 12.3131 19.5275 10.5045 19.5275Z" fill="#842888"/>
</g>
</svg>
