<svg fill="none" height="48" viewBox="0 0 263 48" width="263" xmlns="http://www.w3.org/2000/svg" xmlns:xlink="http://www.w3.org/1999/xlink"><linearGradient id="a"><stop offset="0" stop-color="#af6ca1"/><stop offset=".49" stop-color="#65246b"/><stop offset="1" stop-color="#2a0331"/></linearGradient><linearGradient id="b" gradientUnits="userSpaceOnUse" x1="23.5517" x2="44.7807" xlink:href="#a" y1="-.839905" y2="36.3107"/><linearGradient id="c" gradientUnits="userSpaceOnUse" x1="17.6711" x2="38.9001" xlink:href="#a" y1="2.52068" y2="39.6713"/><linearGradient id="d" gradientUnits="userSpaceOnUse" x1="2.81768" x2="24.0467" xlink:href="#a" y1="11.0082" y2="48.1588"/><linearGradient id="e" gradientUnits="userSpaceOnUse" x1=".688243" x2="21.9172" xlink:href="#a" y1="12.2251" y2="49.3756"/><linearGradient id="f" gradientUnits="userSpaceOnUse" x1="8.6988" x2="29.9278" xlink:href="#a" y1="7.64775" y2="44.7983"/><linearGradient id="g" gradientUnits="userSpaceOnUse" x1="25.6813" x2="46.9103" xlink:href="#a" y1="-2.05667" y2="35.0939"/><clipPath id="h"><path d="m0 0h48v48h-48z"/></clipPath><g clip-path="url(#h)"><path d="m33.5451 20.3573c-1.8735.0849-3.3595 1.624-3.4285 3.4868-.0955 2.0751 1.5709 3.7841 3.6195 3.7469.3079.0212.6316-.0159.9341-.0902.6422-.1698 1.364.0584 1.7779.6103l1.8045 2.4679c.414.5519.4776 1.3533.1274 1.9477-.4405.6953-.6634 1.5126-.5361 2.4254.2442 1.6347 1.6028 2.9774 3.2587 3.1154 2.367.1751 4.3042-1.8682 3.9433-4.2246-.2548-1.4807-1.4118-2.643-2.866-2.9455-.5625-.1221-1.1357-.0902-1.6664.0159-.6793.1911-1.3852-.0955-1.8204-.6846l-1.8416-2.4466c-.3768-.5732-.3981-1.3003-.0106-1.9159.1592-.2389.2972-.5148.3768-.8067.1274-.4671.5679-.8174 1.0667-.8067l2.2025-.0266c.3079.0212.5679.2176.6794.4989.2972.8651 1.0986 1.4913 2.0008 1.5179 1.2684.0636 2.3989-.9766 2.4254-2.2238.0053-1.2843-1.0296-2.3192-2.314-2.3245-.9765.0159-1.8416.6581-2.1176 1.555-.1008.2547-.3768.4617-.6634.4776l-2.2237-.0106c-.4989-.0106-.9394-.3503-1.0614-.8226-.4458-1.4701-1.847-2.5422-3.4763-2.5475-.0584-.0159-.1327.0266-.191.0107z" fill="url(#b)"/><path d="m22.0062.831972c-1.157.907538-1.624 2.505018-1.1623 3.916738.1858.5838.4989 1.04552.8651 1.42765.5467.52541.6475 1.30557.3185 1.93713l-1.2048 2.80751c-.2706.6475-.9022 1.0084-1.6134.9712-.2866.016-.6103.0531-.9128.1274-.4936.0849-.9659-.138-1.2366-.5254l-1.1039-1.93182c-.1486-.26006-.0902-.5891.069-.82793.5944-.68463.7695-1.67178.3184-2.54747-.5785-1.0986-2.0008-1.51787-3.1366-.91815-1.0773.61564-1.4966 2.03798-.8226 3.13127.4883.85446 1.4701 1.27904 2.3989 1.09329.2654-.05308.5785.06368.7271.32374l1.1039 1.93187c.2335.4086.1486.95-.1751 1.3321-1.1039 1.1729-1.3109 2.9667-.3875 4.4103 1.0084 1.5921 3.0888 2.1282 4.7447 1.2313 1.8257-.9447 2.4838-3.2428 1.4648-5.026-.1486-.2601-.3344-.4989-.5573-.7165-.4882-.5095-.6421-1.21-.3715-1.8575l1.2048-2.80753c.2706-.64748.9553-1.08799 1.6664-1.05084.8067.03185 1.6347-.24413 2.3352-.74301 1.3215-1.05084 1.7567-2.87653 1.0774-4.41031-.6316-1.363961-1.9372-2.096357-3.3171-2.0963548-.8067-.031842-1.6346.2441348-2.2927.8173168z" fill="url(#c)"/><path d="m2.93426 14.1449c.23352 1.4436 1.41172 2.643 2.86591 2.9455.56256.1221 1.13574.0903 1.64524-.053.67932-.1911 1.40642.1326 1.82038.6846l1.84161 2.4466c.3768.5732.398 1.3003.0106 1.9159-.1592.2389-.276.552-.3556.8439-.1486.4299-.5891.7801-1.06672.8067l-2.22373-.0106c-.30782-.0213-.56787-.2176-.65809-.4618-.29721-.865-1.0986-1.4913-2.02206-1.555-1.26843-.0637-2.39887.9766-2.40418 2.2609-.02653 1.2472 1.00838 2.2821 2.29273 2.2874.97653-.0159 1.84161-.6581 2.13882-1.5179.0796-.2918.35558-.4988.6634-.4776l2.2025-.0265c.49893.0106.93943.3502 1.06143.8226.4883 1.5444 1.9478 2.6324 3.6673 2.5368 1.8735-.0849 3.3595-1.624 3.4497-3.4497.0743-2.1123-1.5709-3.784-3.6408-3.784-.3078-.0213-.6315.0159-.9128.1273-.6634.1327-1.364-.0583-1.7779-.6103l-1.80448-2.4678c-.43519-.5891-.47765-1.3534-.12738-1.9478.44046-.6952.64216-1.5497.53606-2.4254-.26539-1.6718-1.60282-2.9774-3.25867-3.11534-.11676-.03184-.24945-.00531-.3662-.03715-2.20251.02654-3.95389 1.96369-3.57707 4.26169z" fill="url(#d)"/><path d="m15.9462 30.611c-.138.276-.276.5519-.3556.8438-.1539.6794-.7005 1.1889-1.4064 1.2472l-3.0463.3609c-.7059.0584-1.39583-.2865-1.75672-.9181-.34497-.6899-.99245-1.3056-1.81508-1.624-1.54971-.6422-3.35947-.1008-4.32008 1.2366-1.38518 1.9743-.58379 4.6703 1.68771 5.5407 1.36926.4989 2.97735.1221 3.9698-.9871.37682-.4618.67402-.9766.78017-1.4807.19106-.7006.8173-1.157 1.5391-1.2738l3.0304-.3025c.6847-.0955 1.3374.2707 1.6612.9235.1486.26.3343.4988.5201.7377.345.3449.414.8969.1486 1.2949l-1.0614 1.9372c-.1593.2388-.4777.3715-.7484.329-.8916-.1804-1.8469.2176-2.3776 1.0137-.6687 1.0721-.3184 2.5475.7696 3.1578 1.072.6687 2.489.3025 3.1365-.8067.4883-.8704.3344-1.9159-.26-2.6112-.1858-.2388-.2229-.5625-.085-.8385l1.1199-1.9212c.2441-.4352.7324-.6157 1.2366-.5095 1.555.3927 3.2374-.3715 4.0547-1.8735.8279-1.6558.2335-3.731-1.3162-4.7181-.6157-.3874-1.2578-.5626-1.9478-.5626-1.2472-.0265-2.4944.6369-3.1578 1.8045z" fill="url(#e)"/><path d="m27.1735 29.2222c-1.8256.9447-2.4837 3.2428-1.4647 5.026.1486.26.3343.4989.5572.7165.4883.5095.6634 1.2472.3715 1.8575l-1.2047 2.8075c-.3078.6687-.9553 1.088-1.6665 1.0509-.7854.0053-1.6346.2441-2.3511.8013-1.3056.9925-1.7567 2.8766-1.0614 4.352.9818 2.1494 3.7416 2.8393 5.6097 1.279 1.157-.9075 1.624-2.505 1.1623-3.9167-.2229-.5626-.4989-1.0455-.9022-1.4064-.4883-.5095-.5891-1.2897-.3185-1.9372l1.2419-2.8287c.2919-.6104.9235-.9713 1.6134-.9713.3078.0213.5944.0053.8969-.069.4724-.122.9819.0797 1.2366.5255l1.1199 1.8734c.1486.2601.1114.6263-.069.8279-.6316.7059-.7484 1.709-.3185 2.5475.5785 1.0986 2.0221 1.555 3.0995.9394 1.1145-.6369 1.4966-2.038.881-3.1154-.5095-.8916-1.4702-1.279-2.3989-1.0932-.3025.0743-.5997-.1009-.7483-.3609l-1.1039-1.9319c-.2336-.4086-.1486-.95.1963-1.2949 1.0455-1.1889 1.2897-3.0039.3662-4.4475-.7112-1.0721-1.8734-1.6399-3.0623-1.6505-.5944-.0053-1.1622.122-1.6824.4192z" fill="url(#f)"/><path d="m31.6574 6.10957c-.4883.87038-.3343 1.91591.2813 2.6483.1858.23883.2017.52542.0637.8014l-1.1198 1.92123c-.2442.4352-.7324.6156-1.2366.5095-1.5338-.3556-3.2374.3715-4.0335 1.9106-.8492 1.6187-.2548 3.6938 1.3162 4.7181 1.7461 1.0721 4.0335.5042 5.0843-1.279.138-.276.276-.552.3556-.8439.1751-.6422.7218-1.1517 1.4064-1.2472l3.0464-.3609c.7058-.0584 1.3958.2866 1.7567.9182.3662.7271.9924 1.3055 1.8363 1.6611 1.5284.605 3.3594.1009 4.2988-1.2737 1.4064-1.9372.5838-4.6704-1.6665-5.5036-1.3905-.536-2.9986-.1592-3.9698.9871-.398.4246-.6952.9394-.8014 1.4436-.191.7006-.8173 1.157-1.5391 1.2737l-3.0092.3397c-.7058.0584-1.3586-.3078-1.6611-.9234-.1486-.2601-.3344-.4989-.5201-.7377-.3662-.3822-.414-.897-.1699-1.3322l1.0827-1.89995c.138-.27598.4564-.40866.7271-.3662.8916.18044 1.8681-.18045 2.3776-1.01369.69-1.03491.3397-2.51032-.7695-3.1578-.3556-.19106-.7643-.30251-1.1676-.31843-.7855.00531-1.5497.39274-1.969 1.12514z" fill="url(#g)"/></g><path d="m81.5217 20.0614h-4.1172c-.1174-.6752-.3339-1.2733-.6495-1.7944-.3156-.5284-.7082-.976-1.1779-1.343-.4697-.3669-1.0055-.6422-1.6073-.8256-.5944-.1908-1.2366-.2863-1.9265-.2863-1.2256 0-2.3118.3083-3.2585.9248-.9467.6091-1.688 1.5045-2.2237 2.686-.5358 1.1743-.8036 2.6091-.8036 4.3044 0 1.7246.2678 3.1778.8036 4.3593.5431 1.1743 1.2843 2.0623 2.2237 2.6641.9467.5945 2.0292.8917 3.2475.8917.6752 0 1.3064-.0881 1.8935-.2642.5944-.1835 1.1265-.4514 1.5962-.8036.4771-.3523.877-.7853 1.1999-1.299.3303-.5138.5578-1.1009.6826-1.7614l4.1172.022c-.1542 1.0715-.4881 2.077-1.0018 3.0164-.5064.9394-1.1706 1.7687-1.9926 2.4879-.8219.7119-1.7833 1.2696-2.8842 1.6733-1.1008.3963-2.3228.5944-3.6658.5944-1.9816 0-3.7503-.4586-5.3061-1.376-1.5559-.9174-2.7815-2.2421-3.6769-3.9741-.8953-1.732-1.343-3.809-1.343-6.2308 0-2.4292.4513-4.5062 1.354-6.2309.9027-1.732 2.132-3.0567 3.6879-3.974 1.5559-.9174 3.3172-1.3761 5.2841-1.3761 1.2549 0 2.4218.1761 3.5007.5284 1.0788.3523 2.0402.8697 2.8842 1.5522.844.6752 1.5375 1.5045 2.0806 2.4879.5505.9761.9101 2.0917 1.0789 3.3466zm26.3653 3.6659c0 2.4292-.455 4.5098-1.365 6.2418-.902 1.7247-2.135 3.0457-3.699 3.9631-1.555.9174-3.3204 1.376-5.2946 1.376s-3.7429-.4586-5.3061-1.376c-1.5559-.9247-2.7888-2.2494-3.6989-3.9741-.9027-1.732-1.354-3.809-1.354-6.2308 0-2.4292.4513-4.5062 1.354-6.2309.9101-1.732 2.143-3.0567 3.6989-3.974 1.5632-.9174 3.3319-1.3761 5.3061-1.3761s3.7396.4587 5.2946 1.3761c1.564.9173 2.797 2.242 3.699 3.974.91 1.7247 1.365 3.8017 1.365 6.2309zm-4.106 0c0-1.71-.268-3.1521-.803-4.3264-.529-1.1816-1.263-2.0732-2.202-2.675-.9395-.6092-2.022-.9138-3.2476-.9138s-2.3081.3046-3.2475.9138c-.9394.6018-1.677 1.4934-2.2127 2.675-.5285 1.1743-.7927 2.6164-.7927 4.3264s.2642 3.1557.7927 4.3373c.5357 1.1743 1.2733 2.066 2.2127 2.6751.9394.6018 2.0219.9027 3.2475.9027s2.3081-.3009 3.2476-.9027c.939-.6091 1.673-1.5008 2.202-2.6751.535-1.1816.803-2.6273.803-4.3373zm10.448-11.2728h4.998l6.693 16.3367h.264l6.693-16.3367h4.998v22.5455h-3.919v-15.489h-.209l-6.231 15.4229h-2.928l-6.231-15.4559h-.209v15.522h-3.919zm30.573 0h4.998l6.693 16.3367h.265l6.693-16.3367h4.998v22.5455h-3.919v-15.489h-.209l-6.231 15.4229h-2.929l-6.23-15.4559h-.21v15.522h-3.919zm42.827 6.1978c-.103-.9614-.536-1.7099-1.299-2.2457-.756-.5357-1.74-.8036-2.951-.8036-.851 0-1.581.1284-2.19.3853-.609.2568-1.076.6054-1.398 1.0458-.323.4403-.488.9431-.496 1.5082 0 .4697.107.877.319 1.2219.221.3449.518.6385.892.8807.374.2348.789.433 1.244.5944.455.1615.914.2973 1.376.4074l2.114.5284c.851.1981 1.669.466 2.455.8036.792.3376 1.501.7633 2.124 1.277.631.5137 1.131 1.1339 1.497 1.8604.367.7266.551 1.5779.551 2.554 0 1.321-.338 2.4843-1.013 3.4897-.675.9981-1.651 1.7797-2.928 2.3448-1.27.5578-2.807.8367-4.613.8367-1.754 0-3.277-.2716-4.568-.8147-1.285-.5431-2.29-1.3357-3.017-2.3778-.719-1.0421-1.108-2.3118-1.166-3.809h4.018c.058.7853.301 1.4385.726 1.9596.426.521.98.91 1.662 1.1669.69.2568 1.461.3853 2.312.3853.888 0 1.666-.1321 2.334-.3963.675-.2716 1.204-.6459 1.585-1.1229.382-.4844.576-1.0495.584-1.6953-.008-.5871-.18-1.0715-.518-1.4532-.337-.3889-.811-.7118-1.42-.9687-.602-.2642-1.306-.4991-2.113-.7045l-2.565-.6606c-1.857-.477-3.325-1.1999-4.404-2.1686-1.071-.9761-1.607-2.2715-1.607-3.886 0-1.3284.36-2.4916 1.079-3.4897.726-.9982 1.713-1.7724 2.961-2.3228 1.248-.5578 2.66-.8367 4.238-.8367 1.6 0 3.002.2789 4.206.8367 1.211.5504 2.161 1.3173 2.851 2.3007.69.9761 1.046 2.099 1.068 3.3686zm24.571-6.1978h4.084v14.7294c0 1.6146-.381 3.0347-1.145 4.2603-.756 1.2257-1.82 2.1834-3.192 2.8733-1.373.6825-2.976 1.0238-4.811 1.0238-1.842 0-3.449-.3413-4.822-1.0238-1.372-.6899-2.436-1.6476-3.192-2.8733-.756-1.2256-1.134-2.6457-1.134-4.2603v-14.7294h4.084v14.3882c0 .9394.206 1.776.617 2.5099.418.7339 1.005 1.31 1.761 1.7284.756.411 1.651.6164 2.686.6164s1.93-.2054 2.686-.6164c.763-.4184 1.351-.9945 1.761-1.7284.411-.7339.617-1.5705.617-2.5099zm11.003 22.5455v-22.5455h8.455c1.732 0 3.185.3009 4.359.9027 1.182.6018 2.074 1.4458 2.675 2.532.609 1.0788.914 2.3375.914 3.7759 0 1.4458-.308 2.7008-.925 3.7649-.609 1.0569-1.508 1.8752-2.697 2.4549-1.189.5725-2.649.8587-4.381.8587h-6.022v-3.3906h5.471c1.013 0 1.843-.1395 2.488-.4183.646-.2863 1.123-.7009 1.431-1.244.316-.5504.474-1.2256.474-2.0256 0-.7999-.158-1.4825-.474-2.0476-.315-.5724-.796-1.0054-1.442-1.299-.646-.3009-1.478-.4513-2.499-.4513h-3.743v19.1328zm11.647-10.2159 5.582 10.2159h-4.558l-5.482-10.2159zm10.995 10.2159v-22.5455h14.664v3.4237h-10.579v6.1207h9.819v3.4237h-9.819v6.1537h10.667v3.4237z" fill="#000"/></svg>