<svg fill="none" height="48" viewBox="0 0 263 48" width="263" xmlns="http://www.w3.org/2000/svg" xmlns:xlink="http://www.w3.org/1999/xlink"><clipPath id="a"><path d="m0 0h48v48h-48z"/></clipPath><g clip-path="url(#a)"><path clip-rule="evenodd" d="m15.5905 31.4549c.0796-.2919.2176-.5679.3556-.8439.6634-1.1676 1.9106-1.831 3.1578-1.8044.69-.0001 1.3321.1751 1.9478.5625 1.5497.9872 2.1441 3.0623 1.3162 4.7181-.8173 1.502-2.4997 2.2662-4.0548 1.8735-.5041-.1061-.9924.0743-1.2365.5095l-1.1199 1.9212c-.1379.276-.1008.5997.085.8386.5944.6952.7483 1.7407.26 2.6111-.6475 1.1092-2.0645 1.4754-3.1366.8067-1.0879-.6103-1.4382-2.0857-.7695-3.1578.5307-.7961 1.486-1.1941 2.3776-1.0137.2707.0425.5891-.0902.7483-.329l1.0615-1.9372c.2654-.398.1964-.95-.1486-1.2949-.1858-.2388-.3715-.4777-.5201-.7377-.3238-.6528-.9766-1.019-1.6612-.9235l-3.0304.3025c-.7218.1168-1.34805.5732-1.53911 1.2738-.10614.5042-.40335 1.019-.78016 1.4807-.99245 1.1092-2.60054 1.486-3.96981.9871-2.27149-.8703-3.07289-3.5664-1.68771-5.5407.96061-1.3374 2.77037-1.8788 4.32009-1.2366.82262.3184 1.4701.9341 1.81507 1.624.3609.6316 1.05083.9765 1.75673.9182l3.0463-.3609c.7059-.0584 1.2525-.5679 1.4064-1.2472zm-12.65635-17.31c.23352 1.4436 1.41173 2.643 2.86591 2.9455.56257.1221 1.13575.0903 1.64524-.053.67933-.1911 1.40642.1326 1.82038.6846l1.84162 2.4466c.3768.5732.398 1.3003.0106 1.9159-.1592.2389-.276.552-.3556.8439-.1486.4299-.5891.7802-1.06672.8067l-2.22373-.0106c-.30782-.0212-.56788-.2176-.6581-.4617-.29721-.8651-1.0986-1.4914-2.02206-1.5551-1.26843-.0636-2.39887.9766-2.40417 2.2609-.02654 1.2472 1.00838 2.2821 2.29273 2.2874.97653-.0159 1.84161-.6581 2.13881-1.5178.07961-.2919.35558-.4989.6634-.4777l2.2025-.0265c.49884.0106.93934.3502 1.06144.8226.4883 1.5444 1.9478 2.6324 3.6673 2.5368 1.8735-.0849 3.3595-1.624 3.4497-3.4497.0743-2.1122-1.5709-3.784-3.6408-3.784-.3078-.0212-.6315.0159-.9128.1274-.6634.1326-1.364-.0584-1.7779-.6104l-1.80449-2.4678c-.43519-.5891-.47765-1.3534-.12737-1.9478.44046-.6952.64216-1.5497.53606-2.4254-.2654-1.6718-1.60282-2.9773-3.25868-3.11533-.05838-.01592-.12074-.01725-.1831-.01857-.06236-.00133-.12472-.00266-.1831-.01858-2.2025.02654-3.95389 1.96368-3.57707 4.26168zm17.90955-9.39619c-.4617-1.41173.0053-3.0092 1.1623-3.916742.6581-.573183 1.486-.8491588 2.2927-.8173167 1.3799-.0000037 2.6855.7323927 3.317 2.0963487.6794 1.53379.2442 3.35948-1.0773 4.41031-.7006.49888-1.5285.77486-2.3352.74302-.7112-.03715-1.3958.40335-1.6665 1.05083l-1.2047 2.80754c-.2707.6475-.1168 1.348.3715 1.8575.2229.2176.4087.4564.5573.7165 1.019 1.7832.3609 4.0813-1.4648 5.0259-1.6559.897-3.7363.3609-4.7447-1.2312-.9235-1.4436-.7165-3.2374.3874-4.4103.3238-.3822.4087-.9235.1752-1.3321l-1.1039-1.93188c-.1486-.26005-.4618-.37681-.7271-.32374-.9288.18576-1.9106-.23882-2.3989-1.09328-.674-1.09329-.2548-2.51563.8226-3.13127 1.1358-.59972 2.5581-.18045 3.1366.91814.4511.8757.276 1.86284-.3184 2.54748-.1593.23882-.2176.56787-.069.82792l1.1039 1.93183c.2706.3874.743.6103 1.2366.5254.3025-.0743.6262-.1114.9128-.1274.7112.0372 1.3427-.3237 1.6134-.9712l1.2047-2.80751c.3291-.63156.2282-1.41172-.3184-1.93714-.3662-.38212-.6793-.84385-.8651-1.42764zm9.2729 19.09539c.069-1.8628 1.555-3.4019 3.4285-3.4868.0292.0079.0623.0013.0955-.0053.0332-.0067.0663-.0133.0955-.0053 1.6294.0053 3.0305 1.0773 3.4763 2.5474.122.4724.5625.812 1.0614.8227l2.2238.0106c.2866-.016.5625-.2229.6634-.4777.2759-.8969 1.141-1.5391 2.1175-1.555 1.2844.0053 2.3193 1.0402 2.314 2.3245-.0265 1.2472-1.157 2.2875-2.4254 2.2238-.9022-.0266-1.7036-.6528-2.0008-1.5179-.1115-.2813-.3715-.4776-.6794-.4989l-2.2025.0266c-.4988-.0106-.9393.3396-1.0667.8067-.0796.2919-.2176.5679-.3768.8067-.3874.6156-.3662 1.3427.0106 1.9159l1.8416 2.4466c.4352.5891 1.1411.8757 1.8204.6847.5307-.1062 1.1039-.138 1.6665-.016 1.4541.3025 2.6111 1.4648 2.8659 2.9455.3609 2.3564-1.5763 4.3997-3.9433 4.2246-1.6559-.138-3.0145-1.4807-3.2586-3.1153-.1274-.9129.0955-1.7302.536-2.4254.3503-.5945.2866-1.3958-.1274-1.9478l-1.8044-2.4679c-.414-.5519-1.1358-.7801-1.778-.6103-.3025.0743-.6262.1115-.934.0902-2.0486.0372-3.7151-1.6717-3.6196-3.7469zm-2.9433 5.3781c-1.8257.9447-2.4838 3.2427-1.4648 5.026.1486.26.3344.4988.5573.7164.4883.5095.6634 1.2472.3715 1.8576l-1.2047 2.8075c-.3079.6687-.9553 1.088-1.6665 1.0508-.7855.0053-1.6346.2442-2.3511.8014-1.3056.9925-1.7567 2.8765-1.0614 4.352.9818 2.1494 3.7416 2.8393 5.6097 1.279 1.157-.9075 1.624-2.505 1.1623-3.9168-.2229-.5625-.4989-1.0455-.9023-1.4064-.4882-.5095-.5891-1.2896-.3184-1.9371l1.2419-2.8288c.2919-.6103.9235-.9712 1.6134-.9712.3078.0212.5944.0053.8969-.069.4724-.122.9818.0796 1.2366.5254l1.1198 1.8735c.1486.26.1115.6262-.069.8279-.6315.7059-.7483 1.7089-.3184 2.5475.5785 1.0986 2.0221 1.555 3.0994.9394 1.1145-.6369 1.4967-2.038.881-3.1154-.5095-.8916-1.4701-1.279-2.3988-1.0933-.3026.0743-.5998-.1008-.7484-.3609l-1.1039-1.9318c-.2335-.4087-.1486-.95.1964-1.295 1.0455-1.1888 1.2896-3.0039.3662-4.4474-.7112-1.0721-1.8735-1.64-3.0623-1.6506-.5944-.0053-1.1623.1221-1.6824.4193zm4.7654-20.46438c-.6156-.7324-.7695-1.77792-.2813-2.64831.4193-.7324 1.1835-1.11983 1.969-1.12514.4034.01592.812.12738 1.1676.31843 1.1092.64749 1.4595 2.1229.7696 3.15781-.5095.83323-1.4861 1.19413-2.3777 1.01368-.2707-.04245-.5891.09023-.7271.3662l-1.0826 1.90001c-.2442.4352-.1964.95.1698 1.3321.1857.2388.3715.4776.5201.7377.3025.6156.9553.9818 1.6612.9235l3.0092-.3397c.7217-.1168 1.348-.5732 1.5391-1.2737.1061-.5042.4033-1.019.8013-1.4436.9713-1.1464 2.5794-1.5232 3.9699-.9872 2.2502.8333 3.0728 3.5665 1.6664 5.5036-.9393 1.3746-2.7703 1.8788-4.2988 1.2738-.8439-.3556-1.4701-.9341-1.8363-1.6612-.3609-.6316-1.0509-.9765-1.7567-.9181l-3.0464.3609c-.6846.0955-1.2313.605-1.4064 1.2472-.0796.2919-.2176.5678-.3556.8438-1.0508 1.7832-3.3382 2.3511-5.0843 1.2791-1.5709-1.0243-2.1654-3.0995-1.3162-4.7182.7961-1.5391 2.4997-2.2662 4.0335-1.9106.5042.1062.9924-.0743 1.2366-.5095l1.1198-1.92119c.138-.27598.1221-.56257-.0637-.80139z" fill="#fff" fill-rule="evenodd"/></g><path d="m81.5217 20.0614h-4.1172c-.1174-.6752-.3339-1.2733-.6495-1.7944-.3156-.5284-.7082-.976-1.1779-1.343-.4697-.3669-1.0055-.6422-1.6073-.8256-.5944-.1908-1.2366-.2863-1.9265-.2863-1.2256 0-2.3118.3083-3.2585.9248-.9467.6091-1.688 1.5045-2.2237 2.686-.5358 1.1743-.8036 2.6091-.8036 4.3044 0 1.7246.2678 3.1778.8036 4.3593.5431 1.1743 1.2843 2.0623 2.2237 2.6641.9467.5945 2.0292.8917 3.2475.8917.6752 0 1.3064-.0881 1.8935-.2642.5944-.1835 1.1265-.4514 1.5962-.8036.4771-.3523.877-.7853 1.1999-1.299.3303-.5138.5578-1.1009.6826-1.7614l4.1172.022c-.1542 1.0715-.4881 2.077-1.0018 3.0164-.5064.9394-1.1706 1.7687-1.9926 2.4879-.8219.7119-1.7833 1.2696-2.8842 1.6733-1.1008.3963-2.3228.5944-3.6658.5944-1.9816 0-3.7503-.4586-5.3061-1.376-1.5559-.9174-2.7815-2.2421-3.6769-3.9741-.8953-1.732-1.343-3.809-1.343-6.2308 0-2.4292.4513-4.5062 1.354-6.2309.9027-1.732 2.132-3.0567 3.6879-3.974 1.5559-.9174 3.3172-1.3761 5.2841-1.3761 1.2549 0 2.4218.1761 3.5007.5284 1.0788.3523 2.0402.8697 2.8842 1.5522.844.6752 1.5375 1.5045 2.0806 2.4879.5505.9761.9101 2.0917 1.0789 3.3466zm26.3653 3.6659c0 2.4292-.455 4.5098-1.365 6.2418-.902 1.7247-2.135 3.0457-3.699 3.9631-1.555.9174-3.3204 1.376-5.2946 1.376s-3.7429-.4586-5.3061-1.376c-1.5559-.9247-2.7888-2.2494-3.6989-3.9741-.9027-1.732-1.354-3.809-1.354-6.2308 0-2.4292.4513-4.5062 1.354-6.2309.9101-1.732 2.143-3.0567 3.6989-3.974 1.5632-.9174 3.3319-1.3761 5.3061-1.3761s3.7396.4587 5.2946 1.3761c1.564.9173 2.797 2.242 3.699 3.974.91 1.7247 1.365 3.8017 1.365 6.2309zm-4.106 0c0-1.71-.268-3.1521-.803-4.3264-.529-1.1816-1.263-2.0732-2.202-2.675-.9395-.6092-2.022-.9138-3.2476-.9138s-2.3081.3046-3.2475.9138c-.9394.6018-1.677 1.4934-2.2127 2.675-.5285 1.1743-.7927 2.6164-.7927 4.3264s.2642 3.1557.7927 4.3373c.5357 1.1743 1.2733 2.066 2.2127 2.6751.9394.6018 2.0219.9027 3.2475.9027s2.3081-.3009 3.2476-.9027c.939-.6091 1.673-1.5008 2.202-2.6751.535-1.1816.803-2.6273.803-4.3373zm10.448-11.2728h4.998l6.693 16.3367h.264l6.693-16.3367h4.998v22.5455h-3.919v-15.489h-.209l-6.231 15.4229h-2.928l-6.231-15.4559h-.209v15.522h-3.919zm30.573 0h4.998l6.693 16.3367h.265l6.693-16.3367h4.998v22.5455h-3.919v-15.489h-.209l-6.231 15.4229h-2.929l-6.23-15.4559h-.21v15.522h-3.919zm42.827 6.1978c-.103-.9614-.536-1.7099-1.299-2.2457-.756-.5357-1.74-.8036-2.951-.8036-.851 0-1.581.1284-2.19.3853-.609.2568-1.076.6054-1.398 1.0458-.323.4403-.488.9431-.496 1.5082 0 .4697.107.877.319 1.2219.221.3449.518.6385.892.8807.374.2348.789.433 1.244.5944.455.1615.914.2973 1.376.4074l2.114.5284c.851.1981 1.669.466 2.455.8036.792.3376 1.501.7633 2.124 1.277.631.5137 1.131 1.1339 1.497 1.8604.367.7266.551 1.5779.551 2.554 0 1.321-.338 2.4843-1.013 3.4897-.675.9981-1.651 1.7797-2.928 2.3448-1.27.5578-2.807.8367-4.613.8367-1.754 0-3.277-.2716-4.568-.8147-1.285-.5431-2.29-1.3357-3.017-2.3778-.719-1.0421-1.108-2.3118-1.166-3.809h4.018c.058.7853.301 1.4385.726 1.9596.426.521.98.91 1.662 1.1669.69.2568 1.461.3853 2.312.3853.888 0 1.666-.1321 2.334-.3963.675-.2716 1.204-.6459 1.585-1.1229.382-.4844.576-1.0495.584-1.6953-.008-.5871-.18-1.0715-.518-1.4532-.337-.3889-.811-.7118-1.42-.9687-.602-.2642-1.306-.4991-2.113-.7045l-2.565-.6606c-1.857-.477-3.325-1.1999-4.404-2.1686-1.071-.9761-1.607-2.2715-1.607-3.886 0-1.3284.36-2.4916 1.079-3.4897.726-.9982 1.713-1.7724 2.961-2.3228 1.248-.5578 2.66-.8367 4.238-.8367 1.6 0 3.002.2789 4.206.8367 1.211.5504 2.161 1.3173 2.851 2.3007.69.9761 1.046 2.099 1.068 3.3686zm24.571-6.1978h4.084v14.7294c0 1.6146-.381 3.0347-1.145 4.2603-.756 1.2257-1.82 2.1834-3.192 2.8733-1.373.6825-2.976 1.0238-4.811 1.0238-1.842 0-3.449-.3413-4.822-1.0238-1.372-.6899-2.436-1.6476-3.192-2.8733-.756-1.2256-1.134-2.6457-1.134-4.2603v-14.7294h4.084v14.3882c0 .9394.206 1.776.617 2.5099.418.7339 1.005 1.31 1.761 1.7284.756.411 1.651.6164 2.686.6164s1.93-.2054 2.686-.6164c.763-.4184 1.351-.9945 1.761-1.7284.411-.7339.617-1.5705.617-2.5099zm11.003 22.5455v-22.5455h8.455c1.732 0 3.185.3009 4.359.9027 1.182.6018 2.074 1.4458 2.675 2.532.609 1.0788.914 2.3375.914 3.7759 0 1.4458-.308 2.7008-.925 3.7649-.609 1.0569-1.508 1.8752-2.697 2.4549-1.189.5725-2.649.8587-4.381.8587h-6.022v-3.3906h5.471c1.013 0 1.843-.1395 2.488-.4183.646-.2863 1.123-.7009 1.431-1.244.316-.5504.474-1.2256.474-2.0256 0-.7999-.158-1.4825-.474-2.0476-.315-.5724-.796-1.0054-1.442-1.299-.646-.3009-1.478-.4513-2.499-.4513h-3.743v19.1328zm11.647-10.2159 5.582 10.2159h-4.558l-5.482-10.2159zm10.995 10.2159v-22.5455h14.664v3.4237h-10.579v6.1207h9.819v3.4237h-9.819v6.1537h10.667v3.4237z" fill="#fff"/></svg>